<?xml version="1.0" encoding="utf-8"?>
<!-- Generator: Adobe Illustrator 26.1.0, SVG Export Plug-In . SVG Version: 6.00 Build 0)  -->
<svg version="1.2" baseProfile="tiny" xmlns="http://www.w3.org/2000/svg" xmlns:xlink="http://www.w3.org/1999/xlink" x="0px"
	 y="0px" viewBox="0 0 1080 1080" overflow="visible" xml:space="preserve">
<g id="Box">
	<polygon fill="#E6E7E8" points="265.97,748.59 178.13,786.36 353.55,822.33 440.08,785.12 	"/>
	<path fill="#E6E7E8" d="M178.13,786.36"/>
	<polygon fill="#A7826A" points="254.55,746.43 170.74,779.84 360.71,818.36 447.24,781.18 	"/>
	<polygon fill="#BF9B82" points="265.97,748.59 178.13,786.36 178.52,653.55 265.57,616.45 	"/>
	<path fill="#E6E7E8" d="M353.55,822.33"/>
	<line fill="none" x1="178.13" y1="647.94" x2="353.55" y2="683.9"/>
	<polygon fill="#83604A" points="170.74,785.32 170.74,779.84 360.71,818.36 360.71,824.13 	"/>
	<path fill="#CFAF9A" d="M279.18,636.88c0,0.38-0.1,0.76-0.28,1.13c-3.63-2.24-10.91-3.77-19.28-3.77c-10.82,0-19.8,2.55-21.47,5.88
		c-1.58-0.97-2.47-2.07-2.47-3.24c0-3.86,9.74-7,21.75-7C269.44,629.88,279.18,633.02,279.18,636.88z"/>
	<path fill="#CFAF9A" d="M331.51,646.69c0,0.38-0.1,0.76-0.28,1.13c-3.63-2.24-10.91-3.77-19.28-3.77c-10.82,0-19.8,2.55-21.47,5.88
		c-1.58-0.97-2.47-2.07-2.47-3.24c0-3.86,9.74-7,21.75-7S331.51,642.83,331.51,646.69z"/>
	<path fill="#CFAF9A" d="M383.19,656.1c0,0.38-0.1,0.76-0.28,1.13c-3.63-2.24-10.91-3.77-19.28-3.77c-10.82,0-19.8,2.55-21.47,5.88
		c-1.58-0.97-2.47-2.07-2.47-3.24c0-3.86,9.74-7,21.75-7S383.19,652.23,383.19,656.1z"/>
	<polygon fill="#83604A" points="178.17,781.35 178.16,647.97 170.23,646.34 170.74,779.84 	"/>
	<polygon fill="#BF9B82" points="447.24,647.59 360.71,684.25 360.71,824.13 447.24,786.92 	"/>
	<path fill="#A7826A" d="M265.17,610.84l-8.44-1.69l-86.54,37.21l190.51,38.81l86.53-36.66L265.17,610.84z M278.89,638.01
		c-1.67,3.33-10.65,5.87-21.47,5.87c-8.38,0-15.65-1.52-19.28-3.76c-1.58-0.97-2.47-2.07-2.47-3.24c0-3.86,9.74-7,21.75-7
		c12.01,0,21.75,3.14,21.75,7C279.18,637.26,279.08,637.64,278.89,638.01z M331.22,647.82c-1.67,3.33-10.65,5.87-21.47,5.87
		c-8.38,0-15.65-1.52-19.28-3.76c-1.58-0.97-2.47-2.07-2.47-3.24c0-3.86,9.74-7,21.75-7s21.75,3.14,21.75,7
		C331.51,647.08,331.41,647.46,331.22,647.82z M361.43,663.1c-8.38,0-15.65-1.52-19.28-3.76c-1.58-0.97-2.47-2.07-2.47-3.24
		c0-3.86,9.74-7,21.75-7s21.75,3.14,21.75,7c0,0.38-0.1,0.76-0.28,1.13C381.23,660.56,372.25,663.1,361.43,663.1z"/>
	<polygon fill="#83604A" points="170.2,646.36 170.2,651.77 360.89,690.43 360.71,685.16 	"/>
	<polygon fill="#83604A" points="355.46,684.47 353.55,816.9 360.71,818.36 361.16,685.31 	"/>
</g>
<g id="Eprovetki">
	<linearGradient id="SVGID_1_" gradientUnits="userSpaceOnUse" x1="237.9323" y1="693.9308" x2="276.9364" y2="693.9308">
		<stop  offset="0" style="stop-color:#FFFFFF;stop-opacity:0.5"/>
		<stop  offset="1" style="stop-color:#000000;stop-opacity:0.3"/>
	</linearGradient>
	<path fill="url(#SVGID_1_)" d="M274.92,765.16c-1.43,3.66-3.32,6.25-4.73,7.87c-1.53,1.25-6.14,4.68-12.75,4.69
		c-6.64,0.01-11.26-3.44-12.8-4.69c-1.44-1.73-3.5-4.66-4.97-8.87c-1.89-5.42-1.83-10.24-1.64-12.8V610.14h0.02
		c0,3.93,8.68,7.11,19.39,7.11c10.42,0,18.91-3.02,19.37-6.79v140.89C277.04,753.97,277.21,759.31,274.92,765.16z"/>
	
		<radialGradient id="SVGID_00000000944547930324335070000015755002779702167189_" cx="223.436" cy="768.8532" r="10.6456" gradientTransform="matrix(0.8914 0 0 0.4064 58.2556 460.6046)" gradientUnits="userSpaceOnUse">
		<stop  offset="0" style="stop-color:#EFF0F0"/>
		<stop  offset="1" style="stop-color:#A7A9AC;stop-opacity:0.5"/>
	</radialGradient>
	<ellipse fill="url(#SVGID_00000000944547930324335070000015755002779702167189_)" cx="257.43" cy="773.03" rx="12.77" ry="4.69"/>
	
		<linearGradient id="SVGID_00000134942651353408019690000004114848968823608220_" gradientUnits="userSpaceOnUse" x1="257.7291" y1="675.548" x2="257.1576" y2="736.9584">
		<stop  offset="0" style="stop-color:#1C75BC"/>
		<stop  offset="0.1617" style="stop-color:#1E71B6;stop-opacity:0.9515"/>
		<stop  offset="0.3428" style="stop-color:#2268A9;stop-opacity:0.8972"/>
		<stop  offset="0.5333" style="stop-color:#265A98;stop-opacity:0.84"/>
		<stop  offset="0.7302" style="stop-color:#284682;stop-opacity:0.7809"/>
		<stop  offset="0.9302" style="stop-color:#272D6A;stop-opacity:0.7209"/>
		<stop  offset="1" style="stop-color:#262262;stop-opacity:0.7"/>
	</linearGradient>
	<path fill="url(#SVGID_00000134942651353408019690000004114848968823608220_)" d="M274.92,765.16c-1.43,3.66-3.32,6.25-4.73,7.87
		c-1.53,1.25-6.14,4.68-12.75,4.69c-6.64,0.01-11.26-3.44-12.8-4.69c-1.44-1.73-3.5-4.66-4.97-8.87c-1.89-5.42-1.83-10.24-1.64-12.8
		v-101.2c1.99,3.2,10.12,5.6,19.41,5.6c9.23,0,17.3-2.36,19.37-5.53v101.14C277.04,753.97,277.21,759.31,274.92,765.16z"/>
	
		<linearGradient id="SVGID_00000025435272439638159030000009367390727858941600_" gradientUnits="userSpaceOnUse" x1="237.8932" y1="648.6297" x2="276.9578" y2="648.6297">
		<stop  offset="0.0363" style="stop-color:#496FB6"/>
		<stop  offset="0.1822" style="stop-color:#4669AD"/>
		<stop  offset="0.3807" style="stop-color:#415C9D"/>
		<stop  offset="0.6095" style="stop-color:#384987"/>
		<stop  offset="0.8591" style="stop-color:#2B2E6C"/>
		<stop  offset="0.9553" style="stop-color:#262262"/>
	</linearGradient>
	<path fill="url(#SVGID_00000025435272439638159030000009367390727858941600_)" d="M276.82,648.63c0,0.54,0.31,1.08-0.02,1.59
		c-2.07,3.17-10.15,5.53-19.37,5.53c-9.29,0-17.41-2.4-19.41-5.6c-0.31-0.49,0.02-1,0.02-1.52s-0.33-1.03-0.02-1.52
		c1.99-3.2,10.12-5.6,19.41-5.6c9.23,0,17.3,2.36,19.37,5.53C277.14,647.55,276.82,648.09,276.82,648.63z"/>
	<path fill="none" d="M278.29,584c0,4.23-9.34,7.66-20.86,7.66c-11.52,0-20.86-3.43-20.86-7.66c0-4.23,9.34-7.65,20.86-7.65
		C268.96,576.34,278.29,579.77,278.29,584z"/>
	<path fill="none" d="M279.7,596.42c-0.06-5.61-0.44-9.95-1.4-12.43c0,4.23-9.34,7.66-20.86,7.66c-11.52,0-20.86-3.43-20.86-7.66
		c-0.92,2.6-1.09,6.72-1.2,11.93c-0.14,6.11,0.22,10.91,1.2,13.66c0,3.57,6.65,6.56,15.64,7.41c0.02,0.01,0.04,0.01,0.06,0.01
		c1.65,0.16,3.38,0.24,5.15,0.24s3.5-0.08,5.15-0.24c0.02,0,0.04,0,0.06-0.01c9-0.85,15.64-3.84,15.64-7.41
		C279.27,607.06,279.76,602.43,279.7,596.42z"/>
	
		<radialGradient id="SVGID_00000087380495286837286260000002567930266491935678_" cx="223.9303" cy="610.4872" r="10.2481" fx="223.7283" fy="610.3866" gradientTransform="matrix(0.8914 -0.0134 4.702246e-03 0.4063 55.4023 367.0972)" gradientUnits="userSpaceOnUse">
		<stop  offset="0" style="stop-color:#FFFFFF"/>
		<stop  offset="0.4923" style="stop-color:#FCFCFC;stop-opacity:0.7538"/>
		<stop  offset="0.6696" style="stop-color:#F5F5F5;stop-opacity:0.6652"/>
		<stop  offset="0.796" style="stop-color:#EBEBEC;stop-opacity:0.602"/>
		<stop  offset="0.898" style="stop-color:#DDDEDF;stop-opacity:0.551"/>
		<stop  offset="0.9845" style="stop-color:#CBCCCE;stop-opacity:0.5077"/>
		<stop  offset="1" style="stop-color:#C7C8CA;stop-opacity:0.5"/>
	</radialGradient>
	
		<linearGradient id="SVGID_00000140014825647731004790000009178101581976455828_" gradientUnits="userSpaceOnUse" x1="235.0441" y1="610.1407" x2="279.825" y2="610.1407">
		<stop  offset="0" style="stop-color:#FFFFFF"/>
		<stop  offset="1" style="stop-color:#000000"/>
	</linearGradient>
	
		<path fill="url(#SVGID_00000087380495286837286260000002567930266491935678_)" stroke="url(#SVGID_00000140014825647731004790000009178101581976455828_)" stroke-width="6" stroke-miterlimit="10" d="
		M257.43,603.03c-10.71,0-19.39,3.18-19.39,7.11c0,3.93,8.68,7.11,19.39,7.11c10.42,0,18.91-3.02,19.37-6.79
		c0.01-0.11,0.02-0.22,0.02-0.32C276.82,606.21,268.14,603.03,257.43,603.03z"/>
	<ellipse fill="#27AAE1" cx="248.26" cy="671.34" rx="3.6" ry="4.11"/>
	<ellipse fill="#262262" cx="268.77" cy="694.95" rx="3.53" ry="1.02"/>
	<ellipse fill="#00B7CC" cx="248.26" cy="714.94" rx="3.6" ry="9.04"/>
	<ellipse fill="#27AAE1" cx="267.23" cy="738.8" rx="5.07" ry="2.76"/>
	<ellipse fill="#2B3990" cx="250.48" cy="647.5" rx="3.75" ry="1.12"/>
	<ellipse fill="#1C75BC" cx="263.97" cy="651.66" rx="4.8" ry="1.51"/>
	<line fill="none" x1="279.17" y1="636.74" x2="278.89" y2="638.01"/>
	<line fill="none" x1="331.25" y1="645.62" x2="331.22" y2="647.82"/>
	
		<linearGradient id="SVGID_00000088107678072900155690000014195266351615794361_" gradientUnits="userSpaceOnUse" x1="290.1011" y1="704.8894" x2="329.1052" y2="704.8894">
		<stop  offset="0" style="stop-color:#FFFFFF;stop-opacity:0.5"/>
		<stop  offset="1" style="stop-color:#000000;stop-opacity:0.3"/>
	</linearGradient>
	<path fill="url(#SVGID_00000088107678072900155690000014195266351615794361_)" d="M327.09,776.12c-1.43,3.66-3.32,6.25-4.73,7.87
		c-1.53,1.25-6.14,4.68-12.75,4.69c-6.64,0.01-11.26-3.44-12.8-4.69c-1.44-1.73-3.5-4.66-4.97-8.87c-1.89-5.42-1.83-10.24-1.64-12.8
		V621.1h0.02c0,3.93,8.68,7.11,19.39,7.11c10.42,0,18.91-3.02,19.37-6.79v140.89C329.21,764.93,329.38,770.26,327.09,776.12z"/>
	
		<radialGradient id="SVGID_00000060723188685423821400000000001200459672125884_" cx="281.9582" cy="779.6404" r="10.6456" gradientTransform="matrix(0.8914 0 0 0.4064 58.2556 467.1797)" gradientUnits="userSpaceOnUse">
		<stop  offset="0" style="stop-color:#EFF0F0"/>
		<stop  offset="1" style="stop-color:#A7A9AC;stop-opacity:0.5"/>
	</radialGradient>
	<ellipse fill="url(#SVGID_00000060723188685423821400000000001200459672125884_)" cx="309.6" cy="783.99" rx="12.77" ry="4.69"/>
	
		<linearGradient id="SVGID_00000126314448070702484530000009306443986497579173_" gradientUnits="userSpaceOnUse" x1="309.8979" y1="686.5065" x2="309.3264" y2="747.9169">
		<stop  offset="0" style="stop-color:#1C75BC"/>
		<stop  offset="0.1617" style="stop-color:#1E71B6;stop-opacity:0.9515"/>
		<stop  offset="0.3428" style="stop-color:#2268A9;stop-opacity:0.8972"/>
		<stop  offset="0.5333" style="stop-color:#265A98;stop-opacity:0.84"/>
		<stop  offset="0.7302" style="stop-color:#284682;stop-opacity:0.7809"/>
		<stop  offset="0.9302" style="stop-color:#272D6A;stop-opacity:0.7209"/>
		<stop  offset="1" style="stop-color:#262262;stop-opacity:0.7"/>
	</linearGradient>
	<path fill="url(#SVGID_00000126314448070702484530000009306443986497579173_)" d="M327.09,776.12c-1.43,3.66-3.32,6.25-4.73,7.87
		c-1.53,1.25-6.14,4.68-12.75,4.69c-6.64,0.01-11.26-3.44-12.8-4.69c-1.44-1.73-3.5-4.66-4.97-8.87c-1.89-5.42-1.83-10.24-1.64-12.8
		v-101.2c1.99,3.2,10.12,5.6,19.41,5.6c9.23,0,17.3-2.36,19.37-5.53v101.14C329.21,764.93,329.38,770.26,327.09,776.12z"/>
	
		<linearGradient id="SVGID_00000049218605046386822270000004311512030839643523_" gradientUnits="userSpaceOnUse" x1="290.062" y1="659.5882" x2="329.1266" y2="659.5882">
		<stop  offset="0.0363" style="stop-color:#496FB6"/>
		<stop  offset="0.1822" style="stop-color:#4669AD"/>
		<stop  offset="0.3807" style="stop-color:#415C9D"/>
		<stop  offset="0.6095" style="stop-color:#384987"/>
		<stop  offset="0.8591" style="stop-color:#2B2E6C"/>
		<stop  offset="0.9553" style="stop-color:#262262"/>
	</linearGradient>
	<path fill="url(#SVGID_00000049218605046386822270000004311512030839643523_)" d="M328.99,659.59c0,0.54,0.31,1.08-0.02,1.59
		c-2.07,3.17-10.15,5.53-19.37,5.53c-9.29,0-17.41-2.4-19.41-5.6c-0.31-0.49,0.02-1,0.02-1.52s-0.33-1.03-0.02-1.52
		c1.99-3.2,10.12-5.6,19.41-5.6c9.23,0,17.3,2.36,19.37,5.53C329.31,658.51,328.99,659.04,328.99,659.59z"/>
	<path fill="none" d="M330.46,594.95c0,4.23-9.34,7.66-20.86,7.66s-20.86-3.43-20.86-7.66c0-4.23,9.34-7.65,20.86-7.65
		S330.46,590.73,330.46,594.95z"/>
	<path fill="none" d="M331.86,607.38c-0.06-5.61-0.44-9.95-1.4-12.43c0,4.23-9.34,7.66-20.86,7.66s-20.86-3.43-20.86-7.66
		c-0.92,2.6-1.09,6.72-1.2,11.93c-0.14,6.11,0.22,10.91,1.2,13.66c0,3.57,6.65,6.56,15.64,7.41c0.02,0.01,0.04,0.01,0.06,0.01
		c1.65,0.16,3.38,0.24,5.15,0.24c1.78,0,3.5-0.08,5.15-0.24c0.02,0,0.04,0,0.06-0.01c9-0.85,15.64-3.84,15.64-7.41
		C331.44,618.02,331.93,613.39,331.86,607.38z"/>
	
		<radialGradient id="SVGID_00000078766432063887367090000011520923139210745001_" cx="282.4526" cy="621.2744" r="10.2481" fx="282.2505" fy="621.1738" gradientTransform="matrix(0.8914 -0.0134 4.702246e-03 0.4063 55.3561 374.4567)" gradientUnits="userSpaceOnUse">
		<stop  offset="0" style="stop-color:#FFFFFF"/>
		<stop  offset="0.4923" style="stop-color:#FCFCFC;stop-opacity:0.7538"/>
		<stop  offset="0.6696" style="stop-color:#F5F5F5;stop-opacity:0.6652"/>
		<stop  offset="0.796" style="stop-color:#EBEBEC;stop-opacity:0.602"/>
		<stop  offset="0.898" style="stop-color:#DDDEDF;stop-opacity:0.551"/>
		<stop  offset="0.9845" style="stop-color:#CBCCCE;stop-opacity:0.5077"/>
		<stop  offset="1" style="stop-color:#C7C8CA;stop-opacity:0.5"/>
	</radialGradient>
	
		<linearGradient id="SVGID_00000126286082808540538260000000210869470778071168_" gradientUnits="userSpaceOnUse" x1="287.2129" y1="621.0992" x2="331.9938" y2="621.0992">
		<stop  offset="0" style="stop-color:#FFFFFF"/>
		<stop  offset="1" style="stop-color:#000000"/>
	</linearGradient>
	
		<path fill="url(#SVGID_00000078766432063887367090000011520923139210745001_)" stroke="url(#SVGID_00000126286082808540538260000000210869470778071168_)" stroke-width="6" stroke-miterlimit="10" d="
		M309.6,613.98c-10.71,0-19.39,3.18-19.39,7.11c0,3.93,8.68,7.11,19.39,7.11c10.42,0,18.91-3.02,19.37-6.79
		c0.01-0.11,0.02-0.22,0.02-0.32C328.99,617.17,320.31,613.98,309.6,613.98z"/>
	<ellipse fill="#27AAE1" cx="300.43" cy="682.3" rx="3.6" ry="4.11"/>
	<ellipse fill="#262262" cx="320.94" cy="705.91" rx="3.53" ry="1.02"/>
	<ellipse fill="#00B7CC" cx="300.43" cy="725.9" rx="3.6" ry="9.04"/>
	<ellipse fill="#27AAE1" cx="319.4" cy="749.76" rx="5.07" ry="2.76"/>
	<ellipse fill="#2B3990" cx="302.65" cy="658.46" rx="3.75" ry="1.12"/>
	<ellipse fill="#1C75BC" cx="316.14" cy="662.62" rx="4.8" ry="1.51"/>
	<line fill="none" x1="331.34" y1="647.7" x2="331.06" y2="648.97"/>
	
		<linearGradient id="SVGID_00000028311285244006758730000008676422296940723108_" gradientUnits="userSpaceOnUse" x1="342.27" y1="712.5769" x2="381.274" y2="712.5769">
		<stop  offset="0" style="stop-color:#FFFFFF;stop-opacity:0.5"/>
		<stop  offset="1" style="stop-color:#000000;stop-opacity:0.3"/>
	</linearGradient>
	<path fill="url(#SVGID_00000028311285244006758730000008676422296940723108_)" d="M379.26,783.81c-1.43,3.66-3.32,6.25-4.73,7.87
		c-1.53,1.25-6.14,4.68-12.75,4.69c-6.64,0.01-11.26-3.44-12.8-4.69c-1.44-1.73-3.5-4.66-4.97-8.87c-1.89-5.42-1.83-10.24-1.64-12.8
		V628.79h0.02c0,3.93,8.68,7.11,19.39,7.11c10.42,0,18.91-3.02,19.37-6.79V770C381.38,772.62,381.55,777.95,379.26,783.81z"/>
	
		<radialGradient id="SVGID_00000041977778762866023980000015344934193959949700_" cx="340.4804" cy="787.2078" r="10.6456" gradientTransform="matrix(0.8914 0 0 0.4064 58.2556 471.7923)" gradientUnits="userSpaceOnUse">
		<stop  offset="0" style="stop-color:#EFF0F0"/>
		<stop  offset="1" style="stop-color:#A7A9AC;stop-opacity:0.5"/>
	</radialGradient>
	<ellipse fill="url(#SVGID_00000041977778762866023980000015344934193959949700_)" cx="361.77" cy="791.68" rx="12.77" ry="4.69"/>
	
		<linearGradient id="SVGID_00000093886472982766832440000014364588137894904213_" gradientUnits="userSpaceOnUse" x1="362.0668" y1="694.1941" x2="361.4952" y2="755.6044">
		<stop  offset="0" style="stop-color:#1C75BC"/>
		<stop  offset="0.1617" style="stop-color:#1E71B6;stop-opacity:0.9515"/>
		<stop  offset="0.3428" style="stop-color:#2268A9;stop-opacity:0.8972"/>
		<stop  offset="0.5333" style="stop-color:#265A98;stop-opacity:0.84"/>
		<stop  offset="0.7302" style="stop-color:#284682;stop-opacity:0.7809"/>
		<stop  offset="0.9302" style="stop-color:#272D6A;stop-opacity:0.7209"/>
		<stop  offset="1" style="stop-color:#262262;stop-opacity:0.7"/>
	</linearGradient>
	<path fill="url(#SVGID_00000093886472982766832440000014364588137894904213_)" d="M379.26,783.81c-1.43,3.66-3.32,6.25-4.73,7.87
		c-1.53,1.25-6.14,4.68-12.75,4.69c-6.64,0.01-11.26-3.44-12.8-4.69c-1.44-1.73-3.5-4.66-4.97-8.87c-1.89-5.42-1.83-10.24-1.64-12.8
		V668.8c1.99,3.2,10.12,5.6,19.41,5.6c9.23,0,17.3-2.36,19.37-5.53V770C381.38,772.62,381.55,777.95,379.26,783.81z"/>
	
		<linearGradient id="SVGID_00000153665170257158815890000015241165435233689762_" gradientUnits="userSpaceOnUse" x1="342.2309" y1="667.2758" x2="381.2954" y2="667.2758">
		<stop  offset="0.0363" style="stop-color:#496FB6"/>
		<stop  offset="0.1822" style="stop-color:#4669AD"/>
		<stop  offset="0.3807" style="stop-color:#415C9D"/>
		<stop  offset="0.6095" style="stop-color:#384987"/>
		<stop  offset="0.8591" style="stop-color:#2B2E6C"/>
		<stop  offset="0.9553" style="stop-color:#262262"/>
	</linearGradient>
	<path fill="url(#SVGID_00000153665170257158815890000015241165435233689762_)" d="M381.16,667.28c0,0.54,0.31,1.08-0.02,1.59
		c-2.07,3.17-10.15,5.53-19.37,5.53c-9.29,0-17.41-2.4-19.41-5.6c-0.31-0.49,0.02-1,0.02-1.52s-0.33-1.03-0.02-1.52
		c1.99-3.2,10.12-5.6,19.41-5.6c9.23,0,17.3,2.36,19.37,5.53C381.47,666.2,381.16,666.73,381.16,667.28z"/>
	<path fill="none" d="M382.63,602.64c0,4.23-9.34,7.66-20.86,7.66s-20.86-3.43-20.86-7.66c0-4.23,9.34-7.65,20.86-7.65
		S382.63,598.42,382.63,602.64z"/>
	<path fill="none" d="M384.03,615.07c-0.06-5.61-0.44-9.95-1.4-12.43c0,4.23-9.34,7.66-20.86,7.66s-20.86-3.43-20.86-7.66
		c-0.92,2.6-1.09,6.72-1.2,11.93c-0.14,6.11,0.22,10.91,1.2,13.66c0,3.57,6.65,6.56,15.64,7.41c0.02,0.01,0.04,0.01,0.06,0.01
		c1.65,0.16,3.38,0.24,5.15,0.24c1.78,0,3.5-0.08,5.15-0.24c0.02,0,0.04,0,0.06-0.01c9-0.85,15.64-3.84,15.64-7.41
		C383.61,625.71,384.1,621.07,384.03,615.07z"/>
	
		<radialGradient id="SVGID_00000074431034287487948780000014481982924982018749_" cx="340.9748" cy="628.8418" r="10.2481" fx="340.7728" fy="628.7411" gradientTransform="matrix(0.8914 -0.0134 4.702246e-03 0.4063 55.3251 379.8535)" gradientUnits="userSpaceOnUse">
		<stop  offset="0" style="stop-color:#FFFFFF"/>
		<stop  offset="0.4923" style="stop-color:#FCFCFC;stop-opacity:0.7538"/>
		<stop  offset="0.6696" style="stop-color:#F5F5F5;stop-opacity:0.6652"/>
		<stop  offset="0.796" style="stop-color:#EBEBEC;stop-opacity:0.602"/>
		<stop  offset="0.898" style="stop-color:#DDDEDF;stop-opacity:0.551"/>
		<stop  offset="0.9845" style="stop-color:#CBCCCE;stop-opacity:0.5077"/>
		<stop  offset="1" style="stop-color:#C7C8CA;stop-opacity:0.5"/>
	</radialGradient>
	
		<linearGradient id="SVGID_00000010282181241803455940000009284706836619115652_" gradientUnits="userSpaceOnUse" x1="339.3817" y1="628.7868" x2="384.1626" y2="628.7868">
		<stop  offset="0" style="stop-color:#FFFFFF"/>
		<stop  offset="1" style="stop-color:#000000"/>
	</linearGradient>
	
		<path fill="url(#SVGID_00000074431034287487948780000014481982924982018749_)" stroke="url(#SVGID_00000010282181241803455940000009284706836619115652_)" stroke-width="6" stroke-miterlimit="10" d="
		M361.77,621.67c-10.71,0-19.39,3.18-19.39,7.11c0,3.93,8.68,7.11,19.39,7.11c10.42,0,18.91-3.02,19.37-6.79
		c0.01-0.11,0.02-0.22,0.02-0.32C381.16,624.86,372.48,621.67,361.77,621.67z"/>
	<ellipse fill="#27AAE1" cx="352.6" cy="689.99" rx="3.6" ry="4.11"/>
	<ellipse fill="#262262" cx="373.11" cy="713.6" rx="3.53" ry="1.02"/>
	<ellipse fill="#00B7CC" cx="352.6" cy="733.59" rx="3.6" ry="9.04"/>
	<ellipse fill="#27AAE1" cx="371.57" cy="757.44" rx="5.07" ry="2.76"/>
	<ellipse fill="#2B3990" cx="354.82" cy="666.15" rx="3.75" ry="1.12"/>
	<ellipse fill="#1C75BC" cx="368.31" cy="670.31" rx="4.8" ry="1.51"/>
	<line fill="none" x1="383.51" y1="655.39" x2="383.23" y2="656.66"/>
</g>
<g id="Box_3d_effect">
	<polygon fill="#BF9B82" points="447.24,647.59 360.71,684.25 360.71,824.13 447.24,786.92 	"/>
	<path fill="#A7826A" d="M447.24,648.5l-86.53,36.66L170.2,646.36l65.15-28.01l0.33,18.54c0,1.17,0.89,2.28,2.47,3.24
		c3.63,2.24,10.91,3.76,19.28,3.76c10.82,0,19.8-2.54,21.47-5.87c0.19-0.37,0.28-0.75,0.28-1.13c0-0.04,0-0.09-0.01-0.14l4.86-22
		l3.97,0.82v31.14c0,1.17,0.89,2.28,2.47,3.24c3.63,2.24,10.91,3.76,19.28,3.76c10.82,0,19.8-2.54,21.47-5.87
		c0.19-0.37,0.28-0.75,0.28-1.13c0-0.37-0.09-0.73-0.26-1.08l0.26-21.06l8.77,1.81l-0.59,29.55l-0.01,0.18
		c0,1.17,0.89,2.28,2.47,3.24c3.63,2.24,10.91,3.76,19.28,3.76c10.82,0,19.8-2.54,21.47-5.87c0.19-0.37,0.28-0.75,0.28-1.13v-20.85
		L447.24,648.5z"/>
	<polygon fill="#83604A" points="170.2,646.36 170.2,651.77 360.89,690.43 360.71,685.16 	"/>
	<polygon fill="#83604A" points="355.46,684.47 353.55,816.9 360.71,818.36 361.16,685.31 	"/>
</g>
<g id="Holder">
	<polygon fill="#E1E2E1" points="597.53,773.32 803.51,815.55 964.83,746.18 760.12,703.41 	"/>
	<polygon fill="#9F9E9E" points="803.51,826.23 964.83,756.86 964.83,746.18 803.51,815.55 	"/>
	<polygon fill="#ACACAD" points="597.53,773.32 597.53,784 803.51,826.23 803.51,815.55 	"/>
	
		<linearGradient id="SVGID_00000183970586997399718030000006122584764170319001_" gradientUnits="userSpaceOnUse" x1="704.0144" y1="611.0703" x2="713.2921" y2="611.0703">
		<stop  offset="0" style="stop-color:#555755"/>
		<stop  offset="1" style="stop-color:#EEEFEE"/>
	</linearGradient>
	<path fill="url(#SVGID_00000183970586997399718030000006122584764170319001_)" d="M708.65,483.92c-2.57,0-4.64-1.2-4.64-2.68
		v256.99c0,1.48,2.07,2.67,4.64,2.67c2.56,0,4.64-1.19,4.64-2.67V481.24C713.29,482.72,711.21,483.92,708.65,483.92z"/>
	<path fill="#7E7E7E" d="M713.29,481.76c0,1.04-2.08,2.48-4.64,2.48c-2.57,0-4.64-1.44-4.64-2.48c0-1.04,2.07-2.48,4.64-2.48
		C711.21,479.29,713.29,480.72,713.29,481.76z"/>
	<path fill="#646666" d="M704.01,536.54l64.59,9.98l6.19-2.24l-61.5-9.41c-0.54,0.81-1.78,1.12-3.33,1.48
		C707.71,536.89,706.4,536.73,704.01,536.54z"/>
	<polygon fill="#A9AAAA" points="704.01,536.54 704.01,540.7 768.07,550.6 768.6,546.52 	"/>
	<path fill="#A9AAAA" d="M806.95,548.22c0,0.56-0.21,1.7-0.6,2.21c-2.05-2.73-9.21-5.34-17.72-5.34c-8.52,0-15.67,2.61-17.72,5.34
		c-0.39-0.51-0.6-1.65-0.6-2.21c0-3.51,8.2-6.36,18.32-6.36S806.95,544.71,806.95,548.22z"/>
	<path fill="none" stroke="#000000" stroke-linejoin="round" stroke-miterlimit="10" d="M769.19,551.22"/>
	<path fill="none" stroke="#000000" stroke-linejoin="round" stroke-miterlimit="10" d="M806.95,551.83"/>
	<path fill="none" stroke="#000000" stroke-linejoin="round" stroke-miterlimit="10" d="M818.93,550.09"/>
	<path fill="#646666" d="M788.63,541.45c-11.61,0-21.02,3.27-21.02,7.3s9.41,7.3,21.02,7.3s21.02-3.27,21.02-7.3
		S800.23,541.45,788.63,541.45z M806.35,550.22c-2.06,2.73-9.21,4.75-17.72,4.75s-15.66-2.01-17.72-4.75
		c-0.39-0.51-0.6-1.06-0.6-1.62c0-3.51,8.2-6.36,18.32-6.36s18.32,2.85,18.32,6.36C806.95,549.16,806.74,549.7,806.35,550.22z"/>
	<path fill="#A9AAAA" d="M809.65,548.75v3.7c0,4.03-9.41,7.3-21.02,7.3s-21.02-3.27-21.02-7.3v-3.7c0,4.03,9.41,7.3,21.02,7.3
		S809.65,552.78,809.65,548.75z"/>
	<path fill="#686969" d="M728.02,539.34c0,12.09-7.13,22.14-16.55,24.22c6.02-4.25,10.08-12.21,10.08-21.31
		c0-13.6-9.03-24.61-20.17-24.61c-1.24,0-2.45,0.14-3.62,0.4c2.96-2.1,6.41-3.3,10.09-3.3
		C718.99,514.73,728.02,525.75,728.02,539.34z"/>
	<path fill="#343433" d="M701.38,517.63c-1.24,0-2.45,0.14-3.62,0.4c-9.41,2.08-16.55,12.13-16.55,24.22
		c0,13.59,9.03,24.61,20.17,24.61c3.68,0,7.12-1.2,10.09-3.3c6.02-4.25,10.08-12.21,10.08-21.31
		C721.55,528.65,712.52,517.63,701.38,517.63z"/>
	<path fill="#999999" d="M701.38,538.55c-0.19,0-0.37,0.02-0.54,0.06c-1.41,0.31-2.48,1.82-2.48,3.63c0,2.04,1.35,3.69,3.03,3.69
		c0.55,0,1.07-0.18,1.51-0.49c0.9-0.64,1.51-1.83,1.51-3.2C704.4,540.2,703.05,538.55,701.38,538.55z"/>
</g>
<g id="burner">
	
		<radialGradient id="SVGID_00000111191078416223902030000009321355061641220994_" cx="789.682" cy="707.4318" r="37.1163" gradientTransform="matrix(1 0 0 0.7227 0 208.4155)" gradientUnits="userSpaceOnUse">
		<stop  offset="0" style="stop-color:#AD4018"/>
		<stop  offset="0.1286" style="stop-color:#AE431C;stop-opacity:0.8714"/>
		<stop  offset="0.2601" style="stop-color:#B34E28;stop-opacity:0.7399"/>
		<stop  offset="0.3932" style="stop-color:#BA5F3D;stop-opacity:0.6068"/>
		<stop  offset="0.5272" style="stop-color:#C4765A;stop-opacity:0.4728"/>
		<stop  offset="0.662" style="stop-color:#D1957F;stop-opacity:0.338"/>
		<stop  offset="0.7975" style="stop-color:#E2BAAC;stop-opacity:0.2025"/>
		<stop  offset="0.931" style="stop-color:#F4E6E1;stop-opacity:0.069"/>
		<stop  offset="1" style="stop-color:#FFFFFF;stop-opacity:0"/>
	</radialGradient>
	<ellipse fill="url(#SVGID_00000111191078416223902030000009321355061641220994_)" cx="789.68" cy="719.65" rx="31.97" ry="30.09"/>
	<ellipse fill="#454C4B" cx="790.93" cy="762.54" rx="27.32" ry="15.14"/>
	<ellipse fill="#707977" cx="791.12" cy="759.99" rx="27.32" ry="15.14"/>
	<path fill="#A5A39C" d="M799.89,735.02c0,2.1-4.01,3.8-8.97,3.8c-4.78,0-8.69-1.58-8.95-3.58c-0.01-0.07-0.01-0.14-0.02-0.21
		c0-2.1,4.01-3.8,8.97-3.8C795.88,731.22,799.89,732.92,799.89,735.02z"/>
	<path fill="#F2A06C" d="M792.74,735.02c9.73-0.24-4.12-30.73-4.12-30.73s-6.71,18.32-5.27,23.86s4.78,6.87,4.78,6.87H792.74z"/>
	
		<ellipse fill="#838686" stroke="#6D6E71" stroke-width="2" stroke-miterlimit="10" cx="790.93" cy="755.74" rx="22.03" ry="10.88"/>
	<path fill="#F9CE79" d="M791.21,733.61c4.87-0.12-2.06-15.36-2.06-15.36s-3.35,9.16-2.64,11.93s2.39,3.43,2.39,3.43H791.21z"/>
	<ellipse fill="#777A7A" cx="790.93" cy="754.93" rx="15.42" ry="7.62"/>
	<path fill="#7D847E" d="M799.89,752.76c-0.21,0.35-2.13,1.08-6.99,1.96c-5.46,0.98-9.51-1.79-9.75-1.96
		c-0.39-5.84-0.78-11.69-1.18-17.53c0.26,2,4.17,3.58,8.95,3.58c4.95,0,8.97-1.7,8.97-3.8V752.76z"/>
	<path fill="#BCBEC0" d="M807.44,752.39c1.59,0.37,0.86,4.75-1.85,7.84c-3.61,4.12-12.3,4.97-13.18,3.86
		c-0.44-0.56,4.79-1.07,10.03-5.63C807.59,753.99,806.42,752.16,807.44,752.39z"/>
</g>
<g id="flask">
	
		<linearGradient id="SVGID_00000049918052591658828740000006575035102152114844_" gradientUnits="userSpaceOnUse" x1="708.996" y1="588.6956" x2="869.808" y2="588.6956">
		<stop  offset="0" style="stop-color:#FFFFFF;stop-opacity:0.5"/>
		<stop  offset="0.0585" style="stop-color:#F9F9F9;stop-opacity:0.4808"/>
		<stop  offset="0.1344" style="stop-color:#E9E9E9;stop-opacity:0.456"/>
		<stop  offset="0.2198" style="stop-color:#CECECE;stop-opacity:0.428"/>
		<stop  offset="0.3122" style="stop-color:#A9A9A9;stop-opacity:0.3977"/>
		<stop  offset="0.4102" style="stop-color:#797979;stop-opacity:0.3656"/>
		<stop  offset="0.5112" style="stop-color:#404040;stop-opacity:0.3325"/>
		<stop  offset="0.6103" style="stop-color:#000000;stop-opacity:0.3"/>
	</linearGradient>
	<path fill="url(#SVGID_00000049918052591658828740000006575035102152114844_)" d="M869.81,616.07
		c-5.33-9.67-39.3-17.12-80.41-17.12c-41.1,0-75.07,7.45-80.41,17.12c8.55-31.39,41.3-54.76,80.41-54.76
		C828.51,561.32,861.26,584.69,869.81,616.07z"/>
	
		<linearGradient id="SVGID_00000101815293547298300430000003313699883435076786_" gradientUnits="userSpaceOnUse" x1="789.4423" y1="703.3287" x2="789.4423" y2="619.014">
		<stop  offset="0" style="stop-color:#ED1C24;stop-opacity:0.7"/>
		<stop  offset="0.1155" style="stop-color:#E61E25;stop-opacity:0.7231"/>
		<stop  offset="0.265" style="stop-color:#D81F27;stop-opacity:0.753"/>
		<stop  offset="0.4334" style="stop-color:#C3232A;stop-opacity:0.7867"/>
		<stop  offset="0.6153" style="stop-color:#A7272F;stop-opacity:0.8231"/>
		<stop  offset="0.8076" style="stop-color:#852932;stop-opacity:0.8615"/>
		<stop  offset="1" style="stop-color:#5F2A35;stop-opacity:0.9"/>
	</linearGradient>
	<path fill="url(#SVGID_00000101815293547298300430000003313699883435076786_)" d="M871.98,632.32c0,39.22-36.95,71.01-82.54,71.01
		c-45.58,0-82.54-31.79-82.54-71.01c0-4.55,0.5-9,1.45-13.31c0.59,10.8,36.67,19.52,81.09,19.52c44.42,0,80.49-8.72,81.09-19.52
		C871.48,623.32,871.98,627.77,871.98,632.32z"/>
	<path fill="none" stroke="#000000" stroke-miterlimit="10" d="M805.08,491.32c0,2.33-7.72,4.22-17.25,4.22
		c-9.53,0-17.25-1.89-17.25-4.22c0-2.33,7.73-4.22,17.25-4.22C797.36,487.1,805.08,488.99,805.08,491.32z"/>
	
		<linearGradient id="SVGID_00000127020019759441145380000004561747560631252897_" gradientUnits="userSpaceOnUse" x1="708.2728" y1="618.7421" x2="870.5312" y2="618.7421">
		<stop  offset="0" style="stop-color:#ED1C24;stop-opacity:0.7"/>
		<stop  offset="0.1899" style="stop-color:#E41D25;stop-opacity:0.738"/>
		<stop  offset="0.4356" style="stop-color:#D41E27;stop-opacity:0.7871"/>
		<stop  offset="0.7119" style="stop-color:#BC212B;stop-opacity:0.8424"/>
		<stop  offset="1" style="stop-color:#9D232F;stop-opacity:0.9"/>
	</linearGradient>
	<path fill="url(#SVGID_00000127020019759441145380000004561747560631252897_)" d="M870.53,619.01
		c-0.6,10.8-36.69,19.52-81.13,19.52c-44.44,0-80.53-8.72-81.13-19.52c0.22-0.98,0.46-1.97,0.72-2.94
		c5.33-9.67,39.3-17.12,80.41-17.12c41.11,0,75.07,7.45,80.41,17.12C870.07,617.04,870.31,618.03,870.53,619.01z"/>
	
		<linearGradient id="SVGID_00000016767826400180686480000013518303779000689850_" gradientUnits="userSpaceOnUse" x1="770.8442" y1="535.202" x2="805.3405" y2="535.202">
		<stop  offset="0" style="stop-color:#FFFFFF;stop-opacity:0.5"/>
		<stop  offset="0.0585" style="stop-color:#F9F9F9;stop-opacity:0.4808"/>
		<stop  offset="0.1344" style="stop-color:#E9E9E9;stop-opacity:0.456"/>
		<stop  offset="0.2198" style="stop-color:#CECECE;stop-opacity:0.428"/>
		<stop  offset="0.3122" style="stop-color:#A9A9A9;stop-opacity:0.3977"/>
		<stop  offset="0.4102" style="stop-color:#797979;stop-opacity:0.3656"/>
		<stop  offset="0.5112" style="stop-color:#404040;stop-opacity:0.3325"/>
		<stop  offset="0.6103" style="stop-color:#000000;stop-opacity:0.3"/>
	</linearGradient>
	<path fill="url(#SVGID_00000016767826400180686480000013518303779000689850_)" d="M805.34,491.32v87.77
		c0-2.33-7.72-4.22-17.25-4.22c-9.53,0-17.25,1.89-17.25,4.22v-87.77c0,2.33,7.73,4.22,17.25,4.22
		C797.62,495.54,805.34,493.65,805.34,491.32z"/>
	<path fill="#6D6E71" d="M795.47,574.86c0-26.59,0-53.17,0-79.76c1.73-0.09,4.45-0.48,7.24-2.09c0.94-0.54,1.72-1.13,2.37-1.69
		c0,29.26,0,58.51,0,87.77c-0.43-0.6-0.99-1.24-1.7-1.83C800.42,574.79,796.81,574.79,795.47,574.86z"/>
	<path fill="#E6E7E8" d="M773.52,498.03c-1.7,0.05-1.66,69.63,0,69.68c0.83,0.03,2.24-17.35,2.44-31.36
		C776.22,517.77,774.43,498,773.52,498.03z"/>
	<path fill="#E6E7E8" d="M761.74,575.32c-2.2-2.2-13.67,4.07-21.12,9.48c-10.54,7.64-22.75,20.6-20.34,23.43
		c3.01,3.53,28.83-8.69,39.34-26.04C760.86,580.14,762.99,576.56,761.74,575.32z"/>
	
		<linearGradient id="SVGID_00000083811711479813207690000002599166405568783239_" gradientUnits="userSpaceOnUse" x1="767.5867" y1="491.3211" x2="808.0831" y2="491.3211">
		<stop  offset="0" style="stop-color:#FFFFFF"/>
		<stop  offset="1" style="stop-color:#000000"/>
	</linearGradient>
	
		<path fill="none" stroke="url(#SVGID_00000083811711479813207690000002599166405568783239_)" stroke-width="6" stroke-miterlimit="10" d="
		M805.08,491.32c0,2.33-7.72,4.22-17.25,4.22c-9.53,0-17.25-1.89-17.25-4.22c0-2.33,7.73-4.22,17.25-4.22
		C797.36,487.1,805.08,488.99,805.08,491.32z"/>
	
		<radialGradient id="SVGID_00000181065573598722246500000016730438707927929995_" cx="787.8349" cy="579.0854" r="12.5559" gradientUnits="userSpaceOnUse">
		<stop  offset="0" style="stop-color:#FFFFFF;stop-opacity:0.5"/>
		<stop  offset="0.0895" style="stop-color:#F9F9F9;stop-opacity:0.4808"/>
		<stop  offset="0.2055" style="stop-color:#E9E9E9;stop-opacity:0.456"/>
		<stop  offset="0.336" style="stop-color:#CECECE;stop-opacity:0.428"/>
		<stop  offset="0.4772" style="stop-color:#A9A9A9;stop-opacity:0.3977"/>
		<stop  offset="0.627" style="stop-color:#797979;stop-opacity:0.3656"/>
		<stop  offset="0.7815" style="stop-color:#404040;stop-opacity:0.3325"/>
		<stop  offset="0.933" style="stop-color:#000000;stop-opacity:0.3"/>
	</radialGradient>
	<path fill="url(#SVGID_00000181065573598722246500000016730438707927929995_)" d="M805.08,579.09c0,2.33-7.72,4.22-17.25,4.22
		c-9.53,0-17.25-1.89-17.25-4.22c0-2.33,7.73-4.22,17.25-4.22C797.36,574.87,805.08,576.75,805.08,579.09z"/>
	<path fill="#6D6E71" d="M871.98,632.24c0-4.55-0.5-9-1.45-13.31c-0.22-0.98-0.46-1.97-0.72-2.94
		c-6.66-24.48-28.06-44.09-55.71-51.53c6.47,4.62,23.09,17.55,34.02,40.53c1.79,3.76,3.43,7.8,4.84,12.11
		c1.43,4.36,2.55,8.62,3.41,12.73c3.94,18.85,2.42,34.61,0.64,43.18C866.44,661.48,871.98,647.42,871.98,632.24z"/>
	
		<linearGradient id="SVGID_00000100364809723682245410000002230366485897388191_" gradientUnits="userSpaceOnUse" x1="757.5617" y1="461.4956" x2="817.3376" y2="461.4956" gradientTransform="matrix(0.9388 0.3446 -0.3446 0.9388 187.4089 -29.6604)">
		<stop  offset="0" style="stop-color:#ED1C24;stop-opacity:0.3"/>
		<stop  offset="0.3085" style="stop-color:#E31D26;stop-opacity:0.3"/>
		<stop  offset="0.7068" style="stop-color:#D01D29;stop-opacity:0.3"/>
		<stop  offset="1" style="stop-color:#BE1E2D;stop-opacity:0.3"/>
	</linearGradient>
	<path fill="url(#SVGID_00000100364809723682245410000002230366485897388191_)" d="M795.66,685.22c-2.62,7.13-17.3,8.3-32.8,2.61
		c-15.5-5.69-25.94-16.08-23.32-23.21c2.62-7.13,17.3-8.3,32.8-2.61S798.28,678.08,795.66,685.22z"/>
	<ellipse fill="#BE1E2D" cx="757.49" cy="611.93" rx="6.97" ry="4.15"/>
	<ellipse fill="#DC3121" cx="816.38" cy="614.31" rx="6.27" ry="3.23"/>
	<ellipse fill="#BE1E2D" cx="789.68" cy="626.94" rx="10.6" ry="4.18"/>
	<circle fill="#DC3121" cx="780.13" cy="608.83" r="1.05"/>
	<ellipse fill="#DC3121" cx="739.55" cy="622.98" rx="7.49" ry="3.96"/>
	<ellipse fill="#BE1E2D" cx="838.5" cy="625.03" rx="10.28" ry="4.36"/>
	
		<linearGradient id="SVGID_00000181799223745938930000000003051116067112576403_" gradientUnits="userSpaceOnUse" x1="848.2881" y1="1227.2859" x2="908.0641" y2="1227.2859" gradientTransform="matrix(0.4834 -0.3318 0.3508 0.5111 -15.5267 325.4252)">
		<stop  offset="0" style="stop-color:#ED1C24;stop-opacity:0.3"/>
		<stop  offset="0.3085" style="stop-color:#E31D26;stop-opacity:0.3"/>
		<stop  offset="0.7068" style="stop-color:#D01D29;stop-opacity:0.3"/>
		<stop  offset="1" style="stop-color:#BE1E2D;stop-opacity:0.3"/>
	</linearGradient>
	<path fill="url(#SVGID_00000181799223745938930000000003051116067112576403_)" d="M853.93,651.39c2.66,3.88-1.64,11.47-9.62,16.95
		c-7.98,5.48-16.61,6.77-19.27,2.89c-2.66-3.88,1.64-11.47,9.62-16.95S851.27,647.51,853.93,651.39z"/>
</g>
<g id="_x33_dHolder">
	<path fill="#A9AAAA" d="M809.65,548.74v3.71c0,4.03-9.41,7.3-21.02,7.3c-11.61,0-21.02-3.27-21.02-7.3v-3.71
		c0,4.03,9.41,7.3,21.02,7.3C800.24,556.04,809.65,552.78,809.65,548.74z"/>
	<path fill="#646666" d="M806.94,548.75c-0.04,0.51-0.23,1-0.59,1.47c-2.06,2.73-9.21,4.75-17.72,4.75s-15.66-2.01-17.72-4.75
		l-0.59-1.47h-2.71c0,4.03,9.41,7.3,21.02,7.3c11.61,0,21.02-3.27,21.02-7.3H806.94z"/>
</g>
<g id="microscopeOutline">
	<path fill="#565554" d="M616.08,407.43l-66.4,98.84l-16.07-27.29h-16.98l66.1-96.41c3.03-5.21,14.06-2.18,23.04,3.03
		C614.75,390.82,619.11,402.22,616.08,407.43z"/>
	<path fill="#E1E2E1" d="M549.69,506.27v12.13c-12.59,1.52-35.13,4.95-50.94,4.85c-15.94-0.11-22.2-0.72-34.86-2.43V499.6l47.77,1.1
		l21.97-21.71L549.69,506.27z"/>
	<path fill="#D3D2CE" d="M549.69,518.4v7.79c-12.67,2.48-27.9,4.52-45.17,4.94c-16.3,0.4-30.81-0.74-43.06-2.42
		c0.81-2.63,1.62-5.26,2.43-7.89c12.66,1.71,18.93,2.32,34.86,2.43C514.55,523.35,537.09,519.92,549.69,518.4z"/>
	<path fill="#87847E" d="M549.69,526.19v6.15c-11.35,2.76-25.38,5.23-41.54,6.07c-16.38,0.84-30.77-0.21-42.45-1.82l-4.24-7.88
		c12.25,1.68,26.76,2.82,43.06,2.42C521.79,530.71,537.02,528.67,549.69,526.19z"/>
	<path fill="#E2E3E3" d="M623.96,638.46v28.5c-3.03,0.8-6.06,1.59-9.09,2.39v-9.07l-30.82-2.76v-7.24h0.01l9.59-4.55L623.96,638.46z
		"/>
	<path fill="#87847E" d="M549.69,565.09l-18.84,18.55c-7.45-3.54-17.12-7.19-28.76-9.46c-13.02-2.53-24.45-2.54-32.41-1.01
		l-2.75-6.27c11.68,1.81,25.88,3.12,41.99,2.73C524.57,569.26,538.32,567.37,549.69,565.09z"/>
	<path fill="#E2E1DF" d="M623.96,549.32v89.14l-30.32,7.28c-0.41-19-0.81-38-1.21-57c0.19-1,1.41-7.97-3.23-13.1
		c-1.75-1.93-3.74-2.96-5.14-3.51c-10.35-2.34-24.03-4.69-34.37-7.04v-29.71c23.35,2.02,46.69,4.04,70.03,6.07L623.96,549.32z"/>
	<polygon fill="#D3D2CE" points="593.65,645.74 584.06,650.28 584.05,650.28 536.04,641.49 553.02,638.46 	"/>
	<polygon fill="#CDCBC8" points="584.05,650.28 584.05,657.53 533.62,653.02 536.04,641.49 	"/>
	<polygon fill="#747577" points="533.62,742.75 533.62,758.54 526.34,757.31 509.08,754.41 	"/>
	<polygon fill="#B5B3AC" points="584.05,688.48 584.05,767.01 533.62,758.54 533.62,704.84 	"/>
	<polygon fill="#5D5D5C" points="533.62,704.84 533.62,717.89 516.03,705.77 522.7,706.08 528.9,706.37 	"/>
	<path fill="#E2E3E3" d="M628.21,730.03l-0.6,20.01l-43.55,16.98v-78.53l14.23-4.62c-2.02,3.54-3.58,7.8-4.03,12.81
		c-1.12,12.26,4.73,24.24,15.17,31.07L628.21,730.03z"/>
	<path fill="#7A797A" d="M614.87,660.29l-84.93,28.19h-7.24l-118.25-14.25l92.78-24.86l6.52,0.65c0.01,0.01,0.02,0.01,0.03,0.01
		c0.01,0,0.01,0,0.01,0h0.01l2.49,0.25l0.01,0.01h0.01l27.31,2.73l50.44,4.51L614.87,660.29z"/>
	<polygon fill="#605F5F" points="522.7,688.48 522.7,706.08 516.03,705.77 405.67,692.42 404.45,674.23 	"/>
	<polygon fill="#D8D7D3" points="634.28,755.49 604.01,767.01 509.67,820.8 516.64,796.12 584.05,767.01 627.61,750.03 	"/>
	<polygon fill="#747577" points="533.62,758.54 468.13,783.99 457.21,810.37 435.53,824.46 435.53,824.46 391.72,816.13 
		485.1,765.8 486.11,765.32 509.08,754.41 	"/>
	<polygon fill="#848586" points="675.51,763.38 648.22,774.29 604.01,767.01 634.28,755.49 	"/>
	<polygon fill="#817F7E" points="648.22,774.29 539.68,840.39 528.9,842.2 486.32,834.11 509.67,820.8 604.01,767.01 	"/>
	<polygon fill="#7D7C7D" points="435.53,824.46 433.43,838.63 395.96,831.29 391.72,828.86 391.72,816.13 	"/>
	<polygon fill="#7F7E7F" points="528.9,842.2 528.9,857.36 486.32,849.01 486.32,834.11 	"/>
	<polygon fill="none" stroke="#000000" stroke-miterlimit="10" points="433.43,838.63 486.32,849 486.32,849.01 	"/>
	<polygon fill="#8E8D8A" points="675.51,763.38 675.51,779.14 647.01,790.66 544.62,854.33 542.19,854.8 539.68,840.39 
		648.22,774.29 	"/>
	<polygon fill="#E1DFDE" points="675.51,779.14 675.51,819.16 539.07,877.37 488.13,868.28 480.86,868.88 434.17,859.18 
		431.14,856.15 395.96,848.27 395.96,831.29 433.43,838.63 486.32,849 486.32,849.01 528.9,857.36 542.19,854.8 544.62,854.33 
		647.01,790.66 	"/>
	<polyline fill="#706D6C" points="614.87,682.57 584.05,688.48 528.9,706.37 529.94,688.48 614.87,660.29 614.87,669.35 	"/>
	<path fill="#87847E" d="M593.65,645.74l-40.63-7.28v-73.37c10.34,2.34,20.69,4.69,31.04,7.04c1.4,0.55,3.39,1.57,5.14,3.51
		c4.64,5.14,3.42,12.1,3.23,13.1C592.84,607.73,593.24,626.74,593.65,645.74z"/>
	<polygon fill="#DEDDDC" points="533.62,478.98 511.65,500.69 463.88,499.6 486.92,478.98 	"/>
	<path fill="none" stroke="#000000" stroke-miterlimit="10" d="M486.32,523.25"/>
	<polygon fill="#C3BFB8" points="584.05,767.01 516.64,796.12 468.13,783.99 533.62,758.54 533.62,758.54 	"/>
	<polygon fill="#E2E3E3" points="486.32,834.11 486.32,849 433.43,838.63 435.53,824.46 435.53,824.46 	"/>
	<polygon fill="#E2E3E3" points="516.64,796.12 509.67,820.8 486.32,834.11 435.53,824.46 457.21,810.37 468.13,783.99 	"/>
	<polygon fill="#7E7D7D" points="542.19,854.8 528.9,857.36 528.9,842.2 539.68,840.39 	"/>
	<polyline fill="#656463" points="528.9,706.37 522.7,706.08 522.7,688.48 529.94,688.48 	"/>
	<path fill="#696765" d="M549.69,535.38"/>
	<path fill="#D3D2CE" d="M508.15,538.41c-16.38,0.84-30.77-0.21-42.45-1.82l1.22,30.32c11.68,1.81,25.88,3.12,41.99,2.73
		c15.67-0.38,29.42-2.27,40.78-4.55v-29.71v-3.03C538.34,535.1,524.31,537.57,508.15,538.41z"/>
</g>
<g id="microscopeDetails">
	<path fill="#626262" d="M539.68,601.47c-8.95-5.64-23.48-13.27-42.82-17.29c-16.89-3.5-31.35-2.98-41.22-1.84l9.09-7.89
		c1.45-0.5,3.1-0.94,4.94-1.29c7.96-1.53,19.4-1.52,32.41,1.01c11.64,2.27,21.32,5.93,28.76,9.46c2.36,1.12,4.5,2.23,6.41,3.27
		C538.06,591.77,538.87,596.62,539.68,601.47z"/>
	<path fill="#B7B8B5" d="M539.68,601.47l-12.69,5.59c-1.51-9.46-9.59-16.52-18.99-16.74c-9.74-0.22-18.35,6.94-19.91,16.74
		l-6.01-0.74c-0.27-1.71-1.63-9.09-8.42-14.4c-7.89-6.17-16.87-4.65-18.27-4.39l0.24-5.18c9.86-1.14,24.32-1.66,41.22,1.84
		C516.19,588.2,530.73,595.84,539.68,601.47z"/>
	<path fill="#585857" d="M482.07,606.32l-6.07,11.52c-4.91-2.75-10.17-5.5-15.77-8.19c-4.36-2.1-8.61-4.01-12.73-5.76v-4.85
		l7.89-11.52c1.39-0.26,10.38-1.77,18.27,4.39C480.44,597.23,481.81,604.61,482.07,606.32z"/>
	<path fill="#696965" d="M476.01,617.84L463.27,633c-3.43-2.75-7.62-5.72-12.58-8.56c-4.59-2.63-8.92-4.63-12.77-6.17l9.58-14.38
		c4.26,1.56,8.84,3.45,13.65,5.76C466.71,612.33,471.67,615.13,476.01,617.84z"/>
	<path fill="#737470" d="M463.27,633c-2.83,2.42-5.66,4.85-8.49,7.28c-1.95-2.07-4.71-4.61-8.41-6.98c-3.67-2.34-7.1-3.78-9.78-4.69
		l1.33-10.34L463.27,633z"/>
	<path fill="#7F7E7C" d="M454.78,640.28c-2.85-0.9-6.66-2.44-10.69-5.16c-3.27-2.21-5.74-4.55-7.51-6.51
		c2.68,0.9,6.11,2.34,9.78,4.69C450.07,635.67,452.84,638.21,454.78,640.28z"/>
	<path fill="#696965" d="M463.27,633l-25.35-14.73c3.85,1.53,8.18,3.54,12.77,6.17C455.65,627.28,459.84,630.26,463.27,633z"/>
	<path fill="#575655" d="M526.99,607.06l-1.25,8.24l-0.01,0.11c-0.92-0.92-8.6-8.33-19.78-6.9c-9.07,1.16-14.27,7.34-15.39,8.72
		l-3.03-3.03l0.55-7.14c1.57-9.8,10.18-16.96,19.91-16.74C517.4,590.55,525.48,597.6,526.99,607.06z"/>
	<path fill="#D7D4D0" d="M506.41,638.76c-7.18,0.1-11.51,4.84-12.19,5.61c2.4,2.91,5.76,4.96,9.54,5.65
		c0.01,0.01,0.02,0.01,0.03,0.01c0.01,0,0.01,0,0.01,0h0.01l2.49,0.25l0.01,0.01h0.01c5.04,0.1,9.67-2.2,12.73-5.91
		C518.39,643.64,513.84,638.66,506.41,638.76z M507.01,649.37c-1.47,0-2.65-0.74-2.65-1.67c0-0.92,1.19-1.67,2.65-1.67
		s2.66,0.75,2.66,1.67C509.67,648.63,508.47,649.37,507.01,649.37z"/>
	<path fill="none" stroke="#000000" stroke-miterlimit="10" d="M509.67,647.71c0,0.92-1.19,1.67-2.66,1.67s-2.65-0.74-2.65-1.67
		c0-0.92,1.19-1.67,2.65-1.67S509.67,646.79,509.67,647.71z"/>
	<path fill="#7A7A78" d="M525.73,615.42c-0.96,6.34-1.9,12.69-2.86,19.03c-2.41-1.45-8.14-5.8-15.78-5.92
		c-8.18-0.12-14.12,4.47-16.52,5.92v-17.21c1.11-1.38,6.32-7.56,15.39-8.72C517.13,607.09,524.81,614.5,525.73,615.42z"/>
	<path fill="#858585" d="M522.87,634.45c-0.05,0.37-0.11,0.74-0.17,1.12c-0.32,3.35-1.65,6.37-3.66,8.8
		c-0.65-0.74-5.2-5.71-12.63-5.61c-7.18,0.1-11.51,4.84-12.19,5.61c-2-2.43-3.33-5.46-3.65-8.8v-1.12c2.4-1.45,8.35-6.04,16.52-5.92
		C514.73,628.64,520.46,633,522.87,634.45z"/>
	<path fill="#5F5E5E" d="M543.86,768.75c-0.95-5.93-2.62-10.83-4.18-14.47c-0.4-0.76-0.8-1.51-1.2-2.28
		c-4.75,2.31-12.97,5.56-23.66,6.15c-12.11,0.66-21.59-2.41-26.68-4.47c-0.99,4.49-1.86,9.56-2.42,15.16
		c-0.53,5.28-0.69,10.17-0.64,14.55c0,1.67,13.31,3.03,29.73,3.03c16.42,0,29.73-2.87,29.73-4.55
		C544.73,778.29,544.67,773.81,543.86,768.75z M490.71,772.24c-0.79,4.55-2.83,9.51-3.86,9.33c-1.16-0.21-1.04-6.78-0.23-11.82
		c0.59-3.67,2.06-9.65,3.18-9.55C490.93,760.3,491.72,766.49,490.71,772.24z M502.99,772.01c-0.39,5.46-3.61,11.03-5.46,10.69
		c-1.89-0.34-2.52-6.94-1.59-12.05c0.62-3.36,2.34-8.5,4.1-8.41C501.77,762.33,503.31,767.51,502.99,772.01z M513.45,784.98
		c-2.68-0.15-4.82-7.36-4.55-13.19c0.21-4.31,1.85-10.5,4.32-10.69c2.58-0.2,5.93,6.14,5.92,12.05
		C519.13,778.85,516.01,785.12,513.45,784.98z M528.69,783.38c-2.15,0.02-4.13-7.16-4.32-12.73c-0.12-3.44,0.33-9.65,2.27-10
		c1.89-0.34,4.99,4.89,5.68,10C533.15,776.66,530.76,783.37,528.69,783.38z M540.28,780.43c-1.02,0.13-2.68-6.02-3.41-9.78
		c-0.78-4-1.45-10.21-0.46-10.46c0.89-0.22,3.1,4.37,4.09,8.87C541.7,774.48,541.26,780.3,540.28,780.43z"/>
	<path fill="none" stroke="#000000" stroke-miterlimit="10" d="M494.35,749.5c-0.67,1.97-2.3,3.65-2.73,3.41
		c-0.79-0.43,1.84-7.67,2.73-7.5C494.82,745.5,494.96,747.72,494.35,749.5z"/>
	<path fill="#575654" d="M533.62,742.75c-5.16,0.98-11.78,1.76-19.48,1.52c-7.69-0.24-14.24-1.44-19.32-2.73
		c-2.23,4.04-4.45,8.09-6.68,12.13c5.09,2.06,14.57,5.14,26.68,4.47c10.69-0.59,18.91-3.84,23.66-6.15
		C536.86,748.92,535.24,745.84,533.62,742.75z M494.35,749.5c-0.67,1.97-2.3,3.65-2.73,3.41c-0.79-0.43,1.84-7.67,2.73-7.5
		C494.82,745.5,494.96,747.72,494.35,749.5z M500.57,749.17c-0.46,2.42-1.91,4.72-2.5,4.55c-0.62-0.19-0.3-3.18,0.23-5.23
		c0.36-1.42,1.22-3.96,1.81-3.86C500.67,744.7,500.98,747.07,500.57,749.17z M507.54,749.05c-0.16,1.59-0.69,4.79-1.36,4.77
		c-0.59-0.01-1.33-2.48-0.91-4.77c0.35-1.94,1.53-3.78,2.04-3.64C507.89,745.57,507.62,748.21,507.54,749.05z M512.37,754.08
		c-1-0.01-2.02-2.34-1.87-4.35c0.13-1.79,1.19-3.82,2.17-3.76c0.93,0.06,1.62,2.04,1.69,3.53
		C514.47,751.63,513.4,754.1,512.37,754.08z M519.36,753.59c-0.8-0.05-1.11-3.37-1.13-3.64c-0.03-0.3-0.31-3.43,0.46-3.64
		c0.59-0.16,1.79,1.46,2.04,3.18C521.02,751.5,520.02,753.63,519.36,753.59z M525.05,753.14c-0.46-0.03-0.69-1.12-1.14-3.18
		c-0.45-2.04-0.73-3.34-0.23-3.64c0.57-0.35,2.14,0.66,2.73,2.04C527.3,750.47,525.8,753.21,525.05,753.14z M532.32,751.55
		c-0.59,0.15-1.45-1.41-1.81-2.28c-0.52-1.24-0.83-3.09-0.23-3.41c0.49-0.26,1.51,0.54,2.04,1.36
		C533.42,748.89,533.01,751.38,532.32,751.55z"/>
	<path fill="#7E7C79" d="M494.35,749.5c-0.67,1.97-2.3,3.65-2.73,3.41c-0.79-0.43,1.84-7.67,2.73-7.5
		C494.82,745.5,494.96,747.72,494.35,749.5z"/>
	<path fill="#757474" d="M514.21,736.09c-9.84-0.25-16.89,3.83-19.4,5.46c5.08,1.29,11.64,2.49,19.32,2.73
		c7.7,0.24,14.33-0.54,19.48-1.52C531.22,740.99,524.28,736.35,514.21,736.09z M513.22,741.54c-4.14,0-7.5-0.61-7.5-1.36
		c0-0.76,3.36-1.37,7.5-1.37c4.14,0,7.51,0.61,7.51,1.37C520.73,740.93,517.37,741.54,513.22,741.54z"/>
	<path fill="none" stroke="#000000" stroke-miterlimit="10" d="M694.31,726.38"/>
	<path fill="#48494B" d="M659.14,702.13c0.02,2.49-0.23,9.9-5.46,16.97c-6.35,8.59-15.47,10.53-17.59,10.92h-7.88l-18.79-2.28
		c-10.43-6.84-16.29-18.81-15.17-31.07c1.64-17.84,17.16-26.15,18.19-26.67c3.84-1.01,7.69-2.02,11.52-3.03
		c6.07,1.61,12.13,3.23,18.19,4.85c1.89,0.69,9.95,3.87,14.56,12.73C660.82,692.48,659.58,699.95,659.14,702.13z"/>
	<ellipse fill="#706D6C" cx="647.27" cy="700.24" rx="8.75" ry="17.66"/>
	
		<line fill="#706D6C" stroke="#787B7D" stroke-width="3" stroke-linecap="round" stroke-linejoin="round" stroke-miterlimit="10" x1="622.6" y1="670.6" x2="643.98" y2="677.87"/>
	
		<line fill="#706D6C" stroke="#787B7D" stroke-width="3" stroke-linecap="round" stroke-linejoin="round" stroke-miterlimit="10" x1="614.87" y1="674.24" x2="636.7" y2="682.58"/>
	
		<line fill="#706D6C" stroke="#787B7D" stroke-width="3" stroke-linecap="round" stroke-linejoin="round" stroke-miterlimit="10" x1="608.05" y1="680.6" x2="633.29" y2="688.33"/>
	
		<line fill="#706D6C" stroke="#787B7D" stroke-width="3" stroke-linecap="round" stroke-linejoin="round" stroke-miterlimit="10" x1="602.14" y1="691.97" x2="629.42" y2="696.07"/>
	
		<line fill="#706D6C" stroke="#787B7D" stroke-width="3" stroke-linecap="round" stroke-linejoin="round" stroke-miterlimit="10" x1="602.14" y1="705.16" x2="629.42" y2="705.16"/>
	
		<line fill="#706D6C" stroke="#787B7D" stroke-width="3" stroke-linecap="round" stroke-linejoin="round" stroke-miterlimit="10" x1="608.05" y1="717.9" x2="629.42" y2="714.26"/>
	
		<line fill="#706D6C" stroke="#787B7D" stroke-width="3" stroke-linecap="round" stroke-linejoin="round" stroke-miterlimit="10" x1="622.6" y1="724.72" x2="636.7" y2="721.08"/>
	<path fill="none" stroke="#AAAF84" stroke-width="3" stroke-linecap="round" stroke-linejoin="round" stroke-miterlimit="10" d="
		M448.87,599.04c3.76,0.73,7.57,2.16,13.19,5.16c6.64,3.54,11.22,7.84,14.02,10.91"/>
	<path fill="none" stroke="#6C7586" stroke-width="3" stroke-linecap="round" stroke-linejoin="round" stroke-miterlimit="10" d="
		M488.8,612.79c1.04-1.27,6.63-7.93,18.28-8.36c10.32-0.38,17.21,5.5,18.64,6.78"/>
	<g>
		<path fill="#6B6E70" d="M499.12,645.35c3.23-5.37,12.46-5.23,15.01,0.69c-1.26-0.76-2.45-1.37-3.68-1.82
			C506.62,642.76,502.87,643.39,499.12,645.35L499.12,645.35z"/>
	</g>
	<path fill="none" stroke="#000000" stroke-miterlimit="10" d="M506.63,631.49"/>
	<path fill="#6B6E70" d="M509.67,647.71c0,0.92-1.19,1.67-2.66,1.67s-2.65-0.74-2.65-1.67c0-0.92,1.19-1.67,2.65-1.67
		S509.67,646.79,509.67,647.71z"/>
	<path fill="#9F9D9C" d="M520.73,740.18c0,0.75-3.36,1.36-7.51,1.36c-4.14,0-7.5-0.61-7.5-1.36c0-0.76,3.36-1.37,7.5-1.37
		C517.37,738.82,520.73,739.43,520.73,740.18z"/>
	<path fill="#7E7C79" d="M500.57,749.17c-0.46,2.42-1.91,4.72-2.5,4.55c-0.62-0.19-0.3-3.18,0.23-5.23
		c0.36-1.42,1.22-3.96,1.81-3.86C500.67,744.7,500.98,747.07,500.57,749.17z"/>
	<path fill="#7E7C79" d="M512.37,754.08c-1-0.01-2.02-2.34-1.87-4.35c0.13-1.79,1.19-3.82,2.17-3.76c0.93,0.06,1.62,2.04,1.69,3.53
		C514.47,751.63,513.4,754.1,512.37,754.08z"/>
	<path fill="#7E7C79" d="M507.54,749.05c-0.16,1.59-0.69,4.79-1.36,4.77c-0.59-0.01-1.33-2.48-0.91-4.77
		c0.35-1.94,1.53-3.78,2.04-3.64C507.89,745.57,507.62,748.21,507.54,749.05z"/>
	<path fill="#A2A29E" d="M502.08,748.82"/>
	<path fill="#7E7C79" d="M519.36,753.59c-0.8-0.05-1.11-3.37-1.13-3.64c-0.03-0.3-0.31-3.43,0.46-3.64
		c0.59-0.16,1.79,1.46,2.04,3.18C521.02,751.5,520.02,753.63,519.36,753.59z"/>
	<path fill="#7E7C79" d="M525.05,753.14c-0.46-0.03-0.69-1.12-1.14-3.18c-0.45-2.04-0.73-3.34-0.23-3.64
		c0.57-0.35,2.14,0.66,2.73,2.04C527.3,750.47,525.8,753.21,525.05,753.14z"/>
	<path fill="#7E7C79" d="M532.32,751.55c-0.59,0.15-1.45-1.41-1.81-2.28c-0.52-1.24-0.83-3.09-0.23-3.41
		c0.49-0.26,1.51,0.54,2.04,1.36C533.42,748.89,533.01,751.38,532.32,751.55z"/>
	<path fill="#7E7C79" d="M502.99,772.01c-0.39,5.46-3.61,11.03-5.46,10.69c-1.89-0.34-2.52-6.94-1.59-12.05
		c0.62-3.36,2.34-8.5,4.1-8.41C501.77,762.33,503.31,767.51,502.99,772.01z"/>
	<path fill="#7E7C79" d="M519.14,773.15c-0.01,5.7-3.13,11.97-5.69,11.82c-2.68-0.15-4.82-7.36-4.55-13.19
		c0.21-4.31,1.85-10.5,4.32-10.69C515.81,760.9,519.15,767.24,519.14,773.15z"/>
	<path fill="#7E7C79" d="M528.69,783.38c-2.15,0.02-4.13-7.16-4.32-12.73c-0.12-3.44,0.33-9.65,2.27-10c1.89-0.34,4.99,4.89,5.68,10
		C533.15,776.66,530.76,783.37,528.69,783.38z"/>
	<path fill="#7E7C79" d="M540.28,780.43c-1.02,0.13-2.68-6.02-3.41-9.78c-0.78-4-1.45-10.21-0.46-10.46
		c0.89-0.22,3.1,4.37,4.09,8.87C541.7,774.48,541.26,780.3,540.28,780.43z"/>
	<path fill="#7E7C79" d="M490.71,772.24c-0.79,4.55-2.83,9.51-3.86,9.33c-1.16-0.21-1.04-6.78-0.23-11.82
		c0.59-3.67,2.06-9.65,3.18-9.55C490.93,760.3,491.72,766.49,490.71,772.24z"/>
</g>
</svg>
