<?xml version="1.0" encoding="utf-8"?>
<!-- Generator: Adobe Illustrator 26.1.0, SVG Export Plug-In . SVG Version: 6.00 Build 0)  -->
<svg version="1.2" baseProfile="tiny" xmlns="http://www.w3.org/2000/svg" xmlns:xlink="http://www.w3.org/1999/xlink" x="0px"
	 y="0px" viewBox="0 0 1080 1080" overflow="visible" xml:space="preserve">
<g id="Layer_12" display="none">
	<rect x="42.13" y="218.74" display="inline" fill="#ED1E2B" width="997.13" height="838.19"/>
</g>
<g id="Box">
	<polygon fill="#E6E7E8" points="248.06,688.63 160.22,726.41 335.64,762.37 422.18,725.16 	"/>
	<path fill="#E6E7E8" d="M160.22,726.41"/>
	<polygon fill="#A7826A" points="236.65,686.47 152.84,719.89 342.8,758.4 429.34,721.22 	"/>
	<polygon fill="#BF9B82" points="248.06,688.64 160.22,726.4 160.62,593.59 247.67,556.49 	"/>
	<path fill="#E6E7E8" d="M335.64,762.37"/>
	<line fill="none" x1="160.22" y1="587.98" x2="335.64" y2="623.95"/>
	<polygon fill="#83604A" points="152.84,725.37 152.84,719.89 342.8,758.4 342.8,764.17 	"/>
	<path fill="#CFAF9A" d="M261.27,576.92c0,0.38-0.1,0.76-0.28,1.13c-3.63-2.24-10.91-3.77-19.28-3.77c-10.82,0-19.8,2.55-21.47,5.88
		c-1.58-0.97-2.47-2.07-2.47-3.24c0-3.86,9.74-7,21.75-7C251.53,569.92,261.27,573.06,261.27,576.92z"/>
	<path fill="#CFAF9A" d="M313.6,586.74c0,0.38-0.1,0.76-0.28,1.13c-3.63-2.24-10.91-3.77-19.28-3.77c-10.82,0-19.8,2.55-21.47,5.88
		c-1.58-0.97-2.47-2.07-2.47-3.24c0-3.86,9.74-7,21.75-7C303.86,579.73,313.6,582.87,313.6,586.74z"/>
	<path fill="#CFAF9A" d="M365.28,596.14c0,0.38-0.1,0.76-0.28,1.13c-3.63-2.24-10.91-3.77-19.28-3.77c-10.82,0-19.8,2.55-21.47,5.88
		c-1.58-0.97-2.47-2.07-2.47-3.24c0-3.86,9.74-7,21.75-7C355.54,589.14,365.28,592.28,365.28,596.14z"/>
	<polygon fill="#83604A" points="160.27,721.39 160.26,588.01 152.33,586.39 152.84,719.89 	"/>
	<polygon fill="#BF9B82" points="429.34,587.63 342.8,624.3 342.8,764.17 429.34,726.96 	"/>
	<path fill="#A7826A" d="M247.27,550.88l-8.44-1.69l-86.54,37.21l190.51,38.81l86.53-36.66L247.27,550.88z M260.99,578.05
		c-1.67,3.33-10.65,5.87-21.47,5.87c-8.38,0-15.65-1.52-19.28-3.76c-1.58-0.97-2.47-2.07-2.47-3.24c0-3.86,9.74-7,21.75-7
		c12.01,0,21.75,3.14,21.75,7C261.27,577.31,261.17,577.69,260.99,578.05z M313.32,587.87c-1.67,3.33-10.65,5.87-21.47,5.87
		c-8.38,0-15.65-1.52-19.28-3.76c-1.58-0.97-2.47-2.07-2.47-3.24c0-3.86,9.74-7,21.75-7c12.01,0,21.75,3.14,21.75,7
		C313.6,587.12,313.5,587.5,313.32,587.87z M343.53,603.15c-8.38,0-15.65-1.52-19.28-3.76c-1.58-0.97-2.47-2.07-2.47-3.24
		c0-3.86,9.74-7,21.75-7c12.01,0,21.75,3.14,21.75,7c0,0.38-0.1,0.76-0.28,1.13C363.33,600.6,354.35,603.15,343.53,603.15z"/>
	<polygon fill="#83604A" points="152.3,586.4 152.3,591.81 342.98,630.48 342.8,625.21 	"/>
	<polygon fill="#83604A" points="337.55,624.52 335.64,756.95 342.8,758.4 343.26,625.35 	"/>
</g>
<g id="Eprovetki">
	<linearGradient id="SVGID_1_" gradientUnits="userSpaceOnUse" x1="220.0284" y1="633.9748" x2="259.0324" y2="633.9748">
		<stop  offset="0" style="stop-color:#FFFFFF;stop-opacity:0.5"/>
		<stop  offset="1" style="stop-color:#000000;stop-opacity:0.3"/>
	</linearGradient>
	<path fill="url(#SVGID_1_)" d="M257.01,705.21c-1.43,3.66-3.32,6.25-4.73,7.87c-1.53,1.25-6.14,4.68-12.75,4.69
		c-6.64,0.01-11.26-3.44-12.8-4.69c-1.44-1.73-3.5-4.66-4.97-8.87c-1.89-5.42-1.83-10.24-1.64-12.8V550.18h0.02
		c0,3.93,8.68,7.11,19.39,7.11c10.42,0,18.91-3.02,19.37-6.79V691.4C259.14,694.01,259.31,699.35,257.01,705.21z"/>
	
		<radialGradient id="SVGID_00000181086985325798847300000002813607814090438576_" cx="203.3516" cy="709.8347" r="10.6456" gradientTransform="matrix(0.8914 0 0 0.4064 58.2556 424.631)" gradientUnits="userSpaceOnUse">
		<stop  offset="0" style="stop-color:#EFF0F0"/>
		<stop  offset="1" style="stop-color:#A7A9AC;stop-opacity:0.5"/>
	</radialGradient>
	<ellipse fill="url(#SVGID_00000181086985325798847300000002813607814090438576_)" cx="239.53" cy="713.08" rx="12.77" ry="4.69"/>
	
		<linearGradient id="SVGID_00000072998890234220945180000005424118129011410606_" gradientUnits="userSpaceOnUse" x1="239.8252" y1="615.5919" x2="239.2536" y2="677.0023">
		<stop  offset="0" style="stop-color:#1C75BC"/>
		<stop  offset="0.1617" style="stop-color:#1E71B6;stop-opacity:0.9515"/>
		<stop  offset="0.3428" style="stop-color:#2268A9;stop-opacity:0.8972"/>
		<stop  offset="0.5333" style="stop-color:#265A98;stop-opacity:0.84"/>
		<stop  offset="0.7302" style="stop-color:#284682;stop-opacity:0.7809"/>
		<stop  offset="0.9302" style="stop-color:#272D6A;stop-opacity:0.7209"/>
		<stop  offset="1" style="stop-color:#262262;stop-opacity:0.7"/>
	</linearGradient>
	<path fill="url(#SVGID_00000072998890234220945180000005424118129011410606_)" d="M257.01,705.21c-1.43,3.66-3.32,6.25-4.73,7.87
		c-1.53,1.25-6.14,4.68-12.75,4.69c-6.64,0.01-11.26-3.44-12.8-4.69c-1.44-1.73-3.5-4.66-4.97-8.87c-1.89-5.42-1.83-10.24-1.64-12.8
		v-101.2c1.99,3.2,10.12,5.6,19.41,5.6c9.23,0,17.3-2.36,19.37-5.53V691.4C259.14,694.01,259.31,699.35,257.01,705.21z"/>
	
		<linearGradient id="SVGID_00000155116391637966635680000010788412624177254293_" gradientUnits="userSpaceOnUse" x1="219.9893" y1="588.6736" x2="259.0538" y2="588.6736">
		<stop  offset="0.0363" style="stop-color:#496FB6"/>
		<stop  offset="0.1822" style="stop-color:#4669AD"/>
		<stop  offset="0.3807" style="stop-color:#415C9D"/>
		<stop  offset="0.6095" style="stop-color:#384987"/>
		<stop  offset="0.8591" style="stop-color:#2B2E6C"/>
		<stop  offset="0.9553" style="stop-color:#262262"/>
	</linearGradient>
	<path fill="url(#SVGID_00000155116391637966635680000010788412624177254293_)" d="M258.92,588.67c0,0.54,0.31,1.08-0.02,1.59
		c-2.07,3.17-10.15,5.53-19.37,5.53c-9.29,0-17.41-2.4-19.41-5.6c-0.31-0.49,0.02-1,0.02-1.52s-0.33-1.03-0.02-1.52
		c1.99-3.2,10.12-5.6,19.41-5.6c9.23,0,17.3,2.36,19.37,5.53C259.23,587.6,258.92,588.13,258.92,588.67z"/>
	<path fill="none" d="M260.39,524.04c0,4.23-9.34,7.66-20.86,7.66s-20.86-3.43-20.86-7.66c0-4.23,9.34-7.65,20.86-7.65
		S260.39,519.81,260.39,524.04z"/>
	<path fill="none" d="M261.79,536.47c-0.06-5.61-0.44-9.95-1.4-12.43c0,4.23-9.34,7.66-20.86,7.66s-20.86-3.43-20.86-7.66
		c-0.92,2.6-1.09,6.72-1.2,11.93c-0.14,6.11,0.22,10.91,1.2,13.66c0,3.57,6.65,6.56,15.64,7.41c0.02,0.01,0.04,0.01,0.06,0.01
		c1.65,0.16,3.38,0.24,5.15,0.24c1.78,0,3.5-0.08,5.15-0.24c0.02,0,0.04,0,0.06-0.01c9-0.85,15.64-3.84,15.64-7.41
		C261.37,547.11,261.86,542.47,261.79,536.47z"/>
	
		<radialGradient id="SVGID_00000089554214805777247280000001314111924493293739_" cx="203.8459" cy="551.4687" r="10.2481" fx="203.6439" fy="551.368" gradientTransform="matrix(0.8914 -0.0134 4.702246e-03 0.4063 55.6783 330.8524)" gradientUnits="userSpaceOnUse">
		<stop  offset="0" style="stop-color:#FFFFFF"/>
		<stop  offset="0.4923" style="stop-color:#FCFCFC;stop-opacity:0.7538"/>
		<stop  offset="0.6696" style="stop-color:#F5F5F5;stop-opacity:0.6652"/>
		<stop  offset="0.796" style="stop-color:#EBEBEC;stop-opacity:0.602"/>
		<stop  offset="0.898" style="stop-color:#DDDEDF;stop-opacity:0.551"/>
		<stop  offset="0.9845" style="stop-color:#CBCCCE;stop-opacity:0.5077"/>
		<stop  offset="1" style="stop-color:#C7C8CA;stop-opacity:0.5"/>
	</radialGradient>
	
		<linearGradient id="SVGID_00000167390173337965435310000010346750197447650961_" gradientUnits="userSpaceOnUse" x1="217.1401" y1="550.1847" x2="261.921" y2="550.1847">
		<stop  offset="0" style="stop-color:#FFFFFF"/>
		<stop  offset="1" style="stop-color:#000000"/>
	</linearGradient>
	
		<path fill="url(#SVGID_00000089554214805777247280000001314111924493293739_)" stroke="url(#SVGID_00000167390173337965435310000010346750197447650961_)" stroke-width="6" stroke-miterlimit="10" d="
		M239.53,543.07c-10.71,0-19.39,3.18-19.39,7.11c0,3.93,8.68,7.11,19.39,7.11c10.42,0,18.91-3.02,19.37-6.79
		c0.01-0.11,0.02-0.22,0.02-0.32C258.92,546.25,250.24,543.07,239.53,543.07z"/>
	<ellipse fill="#27AAE1" cx="230.36" cy="611.38" rx="3.6" ry="4.11"/>
	<ellipse fill="#262262" cx="250.87" cy="635" rx="3.53" ry="1.02"/>
	<ellipse fill="#00B7CC" cx="230.36" cy="654.99" rx="3.6" ry="9.04"/>
	<ellipse fill="#27AAE1" cx="249.32" cy="678.84" rx="5.07" ry="2.76"/>
	<ellipse fill="#2B3990" cx="232.58" cy="587.55" rx="3.75" ry="1.12"/>
	<ellipse fill="#1C75BC" cx="246.07" cy="591.7" rx="4.8" ry="1.51"/>
	<line fill="none" x1="261.27" y1="576.79" x2="260.99" y2="578.05"/>
	<line fill="none" x1="313.35" y1="585.66" x2="313.32" y2="587.87"/>
	
		<linearGradient id="SVGID_00000002375643010762069420000017742379269252950455_" gradientUnits="userSpaceOnUse" x1="272.1972" y1="644.9333" x2="311.2013" y2="644.9333">
		<stop  offset="0" style="stop-color:#FFFFFF;stop-opacity:0.5"/>
		<stop  offset="1" style="stop-color:#000000;stop-opacity:0.3"/>
	</linearGradient>
	<path fill="url(#SVGID_00000002375643010762069420000017742379269252950455_)" d="M309.18,716.16c-1.43,3.66-3.32,6.25-4.73,7.87
		c-1.53,1.25-6.14,4.68-12.75,4.69c-6.64,0.01-11.26-3.44-12.8-4.69c-1.44-1.73-3.5-4.66-4.97-8.87c-1.89-5.42-1.83-10.24-1.64-12.8
		V561.14h0.02c0,3.93,8.68,7.11,19.39,7.11c10.42,0,18.91-3.02,19.37-6.79v140.89C311.31,704.97,311.47,710.31,309.18,716.16z"/>
	
		<radialGradient id="SVGID_00000040566879540897174360000016493481068778225542_" cx="261.8738" cy="720.6218" r="10.6456" gradientTransform="matrix(0.8914 0 0 0.4064 58.2556 431.2061)" gradientUnits="userSpaceOnUse">
		<stop  offset="0" style="stop-color:#EFF0F0"/>
		<stop  offset="1" style="stop-color:#A7A9AC;stop-opacity:0.5"/>
	</radialGradient>
	<ellipse fill="url(#SVGID_00000040566879540897174360000016493481068778225542_)" cx="291.7" cy="724.03" rx="12.77" ry="4.69"/>
	
		<linearGradient id="SVGID_00000011023872725387993020000004048799764224793264_" gradientUnits="userSpaceOnUse" x1="291.994" y1="626.5505" x2="291.4225" y2="687.9608">
		<stop  offset="0" style="stop-color:#3EB549"/>
		<stop  offset="0.1837" style="stop-color:#3DAD48;stop-opacity:0.9449"/>
		<stop  offset="0.3894" style="stop-color:#399F44;stop-opacity:0.8832"/>
		<stop  offset="0.6056" style="stop-color:#328A3E;stop-opacity:0.8183"/>
		<stop  offset="0.8277" style="stop-color:#276E34;stop-opacity:0.7517"/>
		<stop  offset="1" style="stop-color:#1D562A;stop-opacity:0.7"/>
	</linearGradient>
	<path fill="url(#SVGID_00000011023872725387993020000004048799764224793264_)" d="M309.18,716.16c-1.43,3.66-3.32,6.25-4.73,7.87
		c-1.53,1.25-6.14,4.68-12.75,4.69c-6.64,0.01-11.26-3.44-12.8-4.69c-1.44-1.73-3.5-4.66-4.97-8.87c-1.89-5.42-1.83-10.24-1.64-12.8
		v-101.2c1.99,3.2,10.12,5.6,19.41,5.6c9.23,0,17.3-2.36,19.37-5.53v101.14C311.31,704.97,311.47,710.31,309.18,716.16z"/>
	
		<linearGradient id="SVGID_00000064349661238287420780000006269734780995449223_" gradientUnits="userSpaceOnUse" x1="272.1581" y1="599.6321" x2="311.2227" y2="599.6321">
		<stop  offset="0.0363" style="stop-color:#339747"/>
		<stop  offset="0.1782" style="stop-color:#329246"/>
		<stop  offset="0.3714" style="stop-color:#308641"/>
		<stop  offset="0.594" style="stop-color:#2A7238"/>
		<stop  offset="0.8368" style="stop-color:#20582C"/>
		<stop  offset="0.9553" style="stop-color:#1A4A25"/>
	</linearGradient>
	<path fill="url(#SVGID_00000064349661238287420780000006269734780995449223_)" d="M311.09,599.63c0,0.54,0.31,1.08-0.02,1.59
		c-2.07,3.17-10.15,5.53-19.37,5.53c-9.29,0-17.41-2.4-19.41-5.6c-0.31-0.49,0.02-1,0.02-1.52s-0.33-1.03-0.02-1.52
		c1.99-3.2,10.12-5.6,19.41-5.6c9.23,0,17.3,2.36,19.37,5.53C311.4,598.56,311.09,599.09,311.09,599.63z"/>
	<path fill="none" d="M312.56,535c0,4.23-9.34,7.66-20.86,7.66s-20.86-3.43-20.86-7.66c0-4.23,9.34-7.65,20.86-7.65
		S312.56,530.77,312.56,535z"/>
	<path fill="none" d="M313.96,547.42c-0.06-5.61-0.44-9.95-1.4-12.43c0,4.23-9.34,7.66-20.86,7.66s-20.86-3.43-20.86-7.66
		c-0.92,2.6-1.09,6.72-1.2,11.93c-0.14,6.11,0.22,10.91,1.2,13.66c0,3.57,6.65,6.56,15.64,7.41c0.02,0.01,0.04,0.01,0.06,0.01
		c1.65,0.16,3.38,0.24,5.15,0.24c1.78,0,3.5-0.08,5.15-0.24c0.02,0,0.04,0,0.06-0.01c9-0.85,15.64-3.84,15.64-7.41
		C313.54,558.07,314.02,553.43,313.96,547.42z"/>
	
		<radialGradient id="SVGID_00000055698897037242945390000000239545191353046171_" cx="262.3682" cy="562.2559" r="10.2481" fx="262.1661" fy="562.1552" gradientTransform="matrix(0.8914 -0.0134 4.702246e-03 0.4063 55.6321 338.2119)" gradientUnits="userSpaceOnUse">
		<stop  offset="0" style="stop-color:#FFFFFF"/>
		<stop  offset="0.4923" style="stop-color:#FCFCFC;stop-opacity:0.7538"/>
		<stop  offset="0.6696" style="stop-color:#F5F5F5;stop-opacity:0.6652"/>
		<stop  offset="0.796" style="stop-color:#EBEBEC;stop-opacity:0.602"/>
		<stop  offset="0.898" style="stop-color:#DDDEDF;stop-opacity:0.551"/>
		<stop  offset="0.9845" style="stop-color:#CBCCCE;stop-opacity:0.5077"/>
		<stop  offset="1" style="stop-color:#C7C8CA;stop-opacity:0.5"/>
	</radialGradient>
	
		<linearGradient id="SVGID_00000094605163766460788710000009939179052274503611_" gradientUnits="userSpaceOnUse" x1="269.3089" y1="561.1432" x2="314.0898" y2="561.1432">
		<stop  offset="0" style="stop-color:#FFFFFF"/>
		<stop  offset="1" style="stop-color:#000000"/>
	</linearGradient>
	
		<path fill="url(#SVGID_00000055698897037242945390000000239545191353046171_)" stroke="url(#SVGID_00000094605163766460788710000009939179052274503611_)" stroke-width="6" stroke-miterlimit="10" d="
		M291.7,554.03c-10.71,0-19.39,3.18-19.39,7.11c0,3.93,8.68,7.11,19.39,7.11c10.42,0,18.91-3.02,19.37-6.79
		c0.01-0.11,0.02-0.22,0.02-0.32C311.09,557.21,302.41,554.03,291.7,554.03z"/>
	<ellipse fill="#1A6734" cx="282.53" cy="622.34" rx="3.6" ry="4.11"/>
	<ellipse fill="#006838" cx="303.04" cy="645.96" rx="3.53" ry="1.02"/>
	<ellipse fill="#31B34A" cx="282.53" cy="665.95" rx="3.6" ry="9.04"/>
	<ellipse fill="#4BB749" cx="301.49" cy="689.8" rx="5.07" ry="2.76"/>
	<ellipse fill="#006838" cx="284.75" cy="598.51" rx="3.75" ry="1.12"/>
	<ellipse fill="#4BB749" cx="298.24" cy="602.66" rx="4.8" ry="1.51"/>
	<line fill="none" x1="313.44" y1="587.75" x2="313.16" y2="589.01"/>
	
		<linearGradient id="SVGID_00000140706857427036949170000004158871764547123610_" gradientUnits="userSpaceOnUse" x1="324.366" y1="652.6208" x2="363.3701" y2="652.6208">
		<stop  offset="0" style="stop-color:#FFFFFF;stop-opacity:0.5"/>
		<stop  offset="1" style="stop-color:#000000;stop-opacity:0.3"/>
	</linearGradient>
	<path fill="url(#SVGID_00000140706857427036949170000004158871764547123610_)" d="M361.35,723.85c-1.43,3.66-3.32,6.25-4.73,7.87
		c-1.53,1.25-6.14,4.68-12.75,4.69c-6.64,0.01-11.26-3.44-12.8-4.69c-1.44-1.73-3.5-4.66-4.97-8.87c-1.89-5.42-1.83-10.24-1.64-12.8
		V568.83h0.02c0,3.93,8.68,7.11,19.39,7.11c10.42,0,18.91-3.02,19.37-6.79v140.89C363.48,712.66,363.64,718,361.35,723.85z"/>
	
		<radialGradient id="SVGID_00000117676944284190422260000013772694979694215850_" cx="320.3961" cy="728.1891" r="10.6456" gradientTransform="matrix(0.8914 0 0 0.4064 58.2556 435.8186)" gradientUnits="userSpaceOnUse">
		<stop  offset="0" style="stop-color:#EFF0F0"/>
		<stop  offset="1" style="stop-color:#A7A9AC;stop-opacity:0.5"/>
	</radialGradient>
	<ellipse fill="url(#SVGID_00000117676944284190422260000013772694979694215850_)" cx="343.87" cy="731.72" rx="12.77" ry="4.69"/>
	
		<linearGradient id="SVGID_00000060023879218874157620000006177343232554355121_" gradientUnits="userSpaceOnUse" x1="344.1628" y1="634.238" x2="343.5913" y2="695.6484">
		<stop  offset="0" style="stop-color:#D54699"/>
		<stop  offset="0.1478" style="stop-color:#D14599;stop-opacity:0.9556"/>
		<stop  offset="0.3134" style="stop-color:#C84398;stop-opacity:0.906"/>
		<stop  offset="0.4875" style="stop-color:#B83F97;stop-opacity:0.8537"/>
		<stop  offset="0.6675" style="stop-color:#A23B96;stop-opacity:0.7997"/>
		<stop  offset="0.8502" style="stop-color:#873694;stop-opacity:0.7449"/>
		<stop  offset="1" style="stop-color:#6D3293;stop-opacity:0.7"/>
	</linearGradient>
	<path fill="url(#SVGID_00000060023879218874157620000006177343232554355121_)" d="M361.35,723.85c-1.43,3.66-3.32,6.25-4.73,7.87
		c-1.53,1.25-6.14,4.68-12.75,4.69c-6.64,0.01-11.26-3.44-12.8-4.69c-1.44-1.73-3.5-4.66-4.97-8.87c-1.89-5.42-1.83-10.24-1.64-12.8
		v-101.2c1.99,3.2,10.12,5.6,19.41,5.6c9.23,0,17.3-2.36,19.37-5.53v101.14C363.48,712.66,363.64,718,361.35,723.85z"/>
	
		<linearGradient id="SVGID_00000181789259288681490360000008418199976976197031_" gradientUnits="userSpaceOnUse" x1="324.3269" y1="607.3197" x2="363.3915" y2="607.3197">
		<stop  offset="0.0363" style="stop-color:#AC397B"/>
		<stop  offset="0.1966" style="stop-color:#A7397C"/>
		<stop  offset="0.4147" style="stop-color:#9C3780"/>
		<stop  offset="0.666" style="stop-color:#8A3487"/>
		<stop  offset="0.9404" style="stop-color:#6E3292"/>
		<stop  offset="0.9553" style="stop-color:#6D3293"/>
	</linearGradient>
	<path fill="url(#SVGID_00000181789259288681490360000008418199976976197031_)" d="M363.26,607.32c0,0.54,0.31,1.08-0.02,1.59
		c-2.07,3.17-10.15,5.53-19.37,5.53c-9.29,0-17.41-2.4-19.41-5.6c-0.31-0.49,0.02-1,0.02-1.52s-0.33-1.03-0.02-1.52
		c1.99-3.2,10.12-5.6,19.41-5.6c9.23,0,17.3,2.36,19.37,5.53C363.57,606.24,363.26,606.78,363.26,607.32z"/>
	<path fill="none" d="M364.73,542.69c0,4.23-9.34,7.66-20.86,7.66c-11.52,0-20.86-3.43-20.86-7.66c0-4.23,9.34-7.65,20.86-7.65
		C355.39,535.03,364.73,538.46,364.73,542.69z"/>
	<path fill="none" d="M366.13,555.11c-0.06-5.61-0.44-9.95-1.4-12.43c0,4.23-9.34,7.66-20.86,7.66c-11.52,0-20.86-3.43-20.86-7.66
		c-0.92,2.6-1.09,6.72-1.2,11.93c-0.14,6.11,0.22,10.91,1.2,13.66c0,3.57,6.65,6.56,15.64,7.41c0.02,0.01,0.04,0.01,0.06,0.01
		c1.65,0.16,3.38,0.24,5.15,0.24c1.78,0,3.5-0.08,5.15-0.24c0.02,0,0.04,0,0.06-0.01c9-0.85,15.64-3.84,15.64-7.41
		C365.71,565.75,366.19,561.12,366.13,555.11z"/>
	
		<radialGradient id="SVGID_00000104699623873359956490000009947706877698860942_" cx="320.8904" cy="569.8232" r="10.2481" fx="320.6884" fy="569.7225" gradientTransform="matrix(0.8914 -0.0134 4.702246e-03 0.4063 55.601 343.6087)" gradientUnits="userSpaceOnUse">
		<stop  offset="0" style="stop-color:#FFFFFF"/>
		<stop  offset="0.4923" style="stop-color:#FCFCFC;stop-opacity:0.7538"/>
		<stop  offset="0.6696" style="stop-color:#F5F5F5;stop-opacity:0.6652"/>
		<stop  offset="0.796" style="stop-color:#EBEBEC;stop-opacity:0.602"/>
		<stop  offset="0.898" style="stop-color:#DDDEDF;stop-opacity:0.551"/>
		<stop  offset="0.9845" style="stop-color:#CBCCCE;stop-opacity:0.5077"/>
		<stop  offset="1" style="stop-color:#C7C8CA;stop-opacity:0.5"/>
	</radialGradient>
	
		<linearGradient id="SVGID_00000101813621255092812970000009530250785813595579_" gradientUnits="userSpaceOnUse" x1="321.4778" y1="568.8307" x2="366.2587" y2="568.8307">
		<stop  offset="0" style="stop-color:#FFFFFF"/>
		<stop  offset="1" style="stop-color:#000000"/>
	</linearGradient>
	
		<path fill="url(#SVGID_00000104699623873359956490000009947706877698860942_)" stroke="url(#SVGID_00000101813621255092812970000009530250785813595579_)" stroke-width="6" stroke-miterlimit="10" d="
		M343.87,561.72c-10.71,0-19.39,3.18-19.39,7.11c0,3.93,8.68,7.11,19.39,7.11c10.42,0,18.91-3.02,19.37-6.79
		c0.01-0.11,0.02-0.22,0.02-0.32C363.26,564.9,354.58,561.72,343.87,561.72z"/>
	<ellipse fill="#7B2D91" cx="334.7" cy="630.03" rx="3.6" ry="4.11"/>
	<ellipse fill="#5B2368" cx="355.2" cy="653.64" rx="3.53" ry="1.02"/>
	<ellipse fill="#DD108D" cx="334.7" cy="673.63" rx="3.6" ry="9.04"/>
	<ellipse fill="#DD108D" cx="353.66" cy="697.49" rx="5.07" ry="2.76"/>
	<ellipse fill="#5B2368" cx="336.92" cy="606.19" rx="3.75" ry="1.12"/>
	<ellipse fill="#DD108D" cx="350.41" cy="610.35" rx="4.8" ry="1.51"/>
	<line fill="none" x1="365.6" y1="595.43" x2="365.33" y2="596.7"/>
</g>
<g id="Box_3d_effect">
	<polygon fill="#BF9B82" points="429.34,587.63 342.8,624.3 342.8,764.17 429.34,726.96 	"/>
	<path fill="#A7826A" d="M429.34,588.54l-86.53,36.66L152.29,586.4l65.15-28.01l0.33,18.54c0,1.17,0.89,2.28,2.47,3.24
		c3.63,2.24,10.91,3.76,19.28,3.76c10.82,0,19.8-2.54,21.47-5.87c0.19-0.37,0.28-0.75,0.28-1.13c0-0.04,0-0.09-0.01-0.14l4.86-22
		l3.97,0.82v31.14c0,1.17,0.89,2.28,2.47,3.24c3.63,2.24,10.91,3.76,19.28,3.76c10.82,0,19.8-2.54,21.47-5.87
		c0.19-0.37,0.28-0.75,0.28-1.13c0-0.37-0.09-0.73-0.26-1.08l0.26-21.06l8.77,1.81l-0.59,29.55l-0.01,0.18
		c0,1.17,0.89,2.28,2.47,3.24c3.63,2.24,10.91,3.76,19.28,3.76c10.82,0,19.8-2.54,21.47-5.87c0.19-0.37,0.28-0.75,0.28-1.13v-20.85
		L429.34,588.54z"/>
	<polygon fill="#83604A" points="152.3,586.4 152.3,591.81 342.98,630.48 342.8,625.21 	"/>
	<polygon fill="#83604A" points="337.55,624.52 335.64,756.95 342.8,758.4 343.26,625.35 	"/>
</g>
<g id="Holder">
	<polygon fill="#E1E2E1" points="595.43,704.21 801.42,746.44 962.74,677.07 758.02,634.3 	"/>
	<polygon fill="#9F9E9E" points="801.42,757.11 962.74,687.75 962.74,677.07 801.42,746.44 	"/>
	<polygon fill="#ACACAD" points="595.43,704.21 595.43,714.88 801.42,757.11 801.42,746.44 	"/>
	
		<linearGradient id="SVGID_00000043455910973554665290000006146512376051446186_" gradientUnits="userSpaceOnUse" x1="701.9191" y1="541.9553" x2="711.1967" y2="541.9553">
		<stop  offset="0" style="stop-color:#555755"/>
		<stop  offset="1" style="stop-color:#EEEFEE"/>
	</linearGradient>
	<path fill="url(#SVGID_00000043455910973554665290000006146512376051446186_)" d="M706.56,414.8c-2.57,0-4.64-1.2-4.64-2.68v256.99
		c0,1.48,2.07,2.67,4.64,2.67c2.56,0,4.64-1.19,4.64-2.67V412.13C711.2,413.6,709.12,414.8,706.56,414.8z"/>
	<path fill="#7E7E7E" d="M711.2,412.65c0,1.04-2.08,2.48-4.64,2.48c-2.57,0-4.64-1.44-4.64-2.48s2.07-2.48,4.64-2.48
		C709.12,410.17,711.2,411.61,711.2,412.65z"/>
	<path fill="#646666" d="M701.92,467.42l64.59,9.98l6.19-2.24l-61.5-9.41c-0.54,0.81-1.78,1.12-3.33,1.48
		C705.61,467.78,704.3,467.62,701.92,467.42z"/>
	<polygon fill="#A9AAAA" points="701.92,467.42 701.92,471.58 765.97,481.48 766.51,477.41 	"/>
	<path fill="#A9AAAA" d="M804.85,479.1c0,0.56-0.21,1.7-0.6,2.21c-2.05-2.73-9.21-5.34-17.72-5.34s-15.67,2.61-17.72,5.34
		c-0.39-0.51-0.6-1.65-0.6-2.21c0-3.51,8.2-6.36,18.32-6.36S804.85,475.59,804.85,479.1z"/>
	<path fill="none" stroke="#000000" stroke-linejoin="round" stroke-miterlimit="10" d="M767.09,482.1"/>
	<path fill="none" stroke="#000000" stroke-linejoin="round" stroke-miterlimit="10" d="M804.85,482.71"/>
	<path fill="none" stroke="#000000" stroke-linejoin="round" stroke-miterlimit="10" d="M816.84,480.98"/>
	<path fill="#646666" d="M786.53,472.33c-11.61,0-21.02,3.27-21.02,7.3c0,4.03,9.41,7.3,21.02,7.3s21.02-3.27,21.02-7.3
		C807.55,475.6,798.14,472.33,786.53,472.33z M804.25,481.1c-2.06,2.73-9.21,4.75-17.72,4.75s-15.66-2.01-17.72-4.75
		c-0.39-0.51-0.6-1.06-0.6-1.62c0-3.51,8.2-6.36,18.32-6.36s18.32,2.85,18.32,6.36C804.85,480.04,804.64,480.59,804.25,481.1z"/>
	<path fill="#A9AAAA" d="M807.55,479.63v3.7c0,4.03-9.41,7.3-21.02,7.3s-21.02-3.27-21.02-7.3v-3.7c0,4.03,9.41,7.3,21.02,7.3
		S807.55,483.66,807.55,479.63z"/>
	<path fill="#686969" d="M725.92,470.22c0,12.09-7.13,22.14-16.55,24.22c6.02-4.25,10.08-12.21,10.08-21.31
		c0-13.6-9.03-24.61-20.17-24.61c-1.24,0-2.45,0.14-3.62,0.4c2.96-2.1,6.41-3.3,10.09-3.3
		C716.89,445.61,725.92,456.63,725.92,470.22z"/>
	<path fill="#343433" d="M699.28,448.51c-1.24,0-2.45,0.14-3.62,0.4c-9.41,2.08-16.55,12.13-16.55,24.22
		c0,13.59,9.03,24.61,20.17,24.61c3.68,0,7.12-1.2,10.09-3.3c6.02-4.25,10.08-12.21,10.08-21.31
		C719.45,459.53,710.42,448.51,699.28,448.51z"/>
	<path fill="#999999" d="M699.28,469.43c-0.19,0-0.37,0.02-0.54,0.06c-1.41,0.31-2.48,1.82-2.48,3.63c0,2.04,1.35,3.69,3.03,3.69
		c0.55,0,1.07-0.18,1.51-0.49c0.9-0.64,1.51-1.83,1.51-3.2C702.31,471.09,700.95,469.43,699.28,469.43z"/>
</g>
<g id="burner">
	
		<radialGradient id="SVGID_00000101073706397583998410000002627481082788538767_" cx="787.5866" cy="611.793" r="37.1163" gradientTransform="matrix(1 0 0 0.7227 0 208.4155)" gradientUnits="userSpaceOnUse">
		<stop  offset="0" style="stop-color:#AD4018"/>
		<stop  offset="0.1286" style="stop-color:#AE431C;stop-opacity:0.8714"/>
		<stop  offset="0.2601" style="stop-color:#B34E28;stop-opacity:0.7399"/>
		<stop  offset="0.3932" style="stop-color:#BA5F3D;stop-opacity:0.6068"/>
		<stop  offset="0.5272" style="stop-color:#C4765A;stop-opacity:0.4728"/>
		<stop  offset="0.662" style="stop-color:#D1957F;stop-opacity:0.338"/>
		<stop  offset="0.7975" style="stop-color:#E2BAAC;stop-opacity:0.2025"/>
		<stop  offset="0.931" style="stop-color:#F4E6E1;stop-opacity:0.069"/>
		<stop  offset="1" style="stop-color:#FFFFFF;stop-opacity:0"/>
	</radialGradient>
	<ellipse fill="url(#SVGID_00000101073706397583998410000002627481082788538767_)" cx="787.59" cy="650.54" rx="31.97" ry="30.09"/>
	<ellipse fill="#454C4B" cx="788.83" cy="693.43" rx="27.32" ry="15.14"/>
	<ellipse fill="#707977" cx="789.02" cy="690.88" rx="27.32" ry="15.14"/>
	<path fill="#A5A39C" d="M797.8,665.9c0,2.1-4.01,3.8-8.97,3.8c-4.78,0-8.69-1.58-8.95-3.58c-0.01-0.07-0.01-0.14-0.02-0.21
		c0-2.1,4.01-3.8,8.97-3.8S797.8,663.8,797.8,665.9z"/>
	<path fill="#F2A06C" d="M790.65,665.9c9.73-0.24-4.12-30.73-4.12-30.73s-6.71,18.32-5.27,23.86c1.44,5.53,4.78,6.87,4.78,6.87
		H790.65z"/>
	
		<ellipse fill="#838686" stroke="#6D6E71" stroke-width="2" stroke-miterlimit="10" cx="788.83" cy="686.63" rx="22.03" ry="10.88"/>
	<path fill="#F9CE79" d="M789.12,664.49c4.87-0.12-2.06-15.36-2.06-15.36s-3.35,9.16-2.64,11.93c0.72,2.77,2.39,3.43,2.39,3.43
		H789.12z"/>
	<ellipse fill="#777A7A" cx="788.84" cy="685.81" rx="15.42" ry="7.62"/>
	<path fill="#7D847E" d="M797.8,683.64c-0.21,0.35-2.13,1.08-6.99,1.96c-5.46,0.98-9.51-1.79-9.75-1.96
		c-0.39-5.84-0.79-11.69-1.18-17.53c0.26,2,4.17,3.58,8.95,3.58c4.95,0,8.97-1.7,8.97-3.8V683.64z"/>
	<path fill="#BCBEC0" d="M805.35,683.28c1.59,0.37,0.86,4.75-1.85,7.84c-3.61,4.12-12.3,4.97-13.18,3.86
		c-0.44-0.56,4.79-1.07,10.03-5.63C805.49,684.87,804.33,683.04,805.35,683.28z"/>
</g>
<g id="flask">
	
		<linearGradient id="SVGID_00000083809918525979153030000006541695494982301356_" gradientUnits="userSpaceOnUse" x1="706.9006" y1="519.5806" x2="867.7126" y2="519.5806">
		<stop  offset="0" style="stop-color:#FFFFFF;stop-opacity:0.5"/>
		<stop  offset="0.0585" style="stop-color:#F9F9F9;stop-opacity:0.4808"/>
		<stop  offset="0.1344" style="stop-color:#E9E9E9;stop-opacity:0.456"/>
		<stop  offset="0.2198" style="stop-color:#CECECE;stop-opacity:0.428"/>
		<stop  offset="0.3122" style="stop-color:#A9A9A9;stop-opacity:0.3977"/>
		<stop  offset="0.4102" style="stop-color:#797979;stop-opacity:0.3656"/>
		<stop  offset="0.5112" style="stop-color:#404040;stop-opacity:0.3325"/>
		<stop  offset="0.6103" style="stop-color:#000000;stop-opacity:0.3"/>
	</linearGradient>
	<path fill="url(#SVGID_00000083809918525979153030000006541695494982301356_)" d="M867.71,546.96
		c-5.33-9.67-39.3-17.12-80.41-17.12c-41.1,0-75.07,7.45-80.41,17.12c8.55-31.39,41.3-54.76,80.41-54.76
		C826.41,492.2,859.17,515.57,867.71,546.96z"/>
	
		<linearGradient id="SVGID_00000130616062480559558920000002033173547082960316_" gradientUnits="userSpaceOnUse" x1="787.347" y1="634.2137" x2="787.347" y2="549.899">
		<stop  offset="0" style="stop-color:#ED1C24;stop-opacity:0.7"/>
		<stop  offset="0.1155" style="stop-color:#E61E25;stop-opacity:0.7231"/>
		<stop  offset="0.265" style="stop-color:#D81F27;stop-opacity:0.753"/>
		<stop  offset="0.4334" style="stop-color:#C3232A;stop-opacity:0.7867"/>
		<stop  offset="0.6153" style="stop-color:#A7272F;stop-opacity:0.8231"/>
		<stop  offset="0.8076" style="stop-color:#852932;stop-opacity:0.8615"/>
		<stop  offset="1" style="stop-color:#5F2A35;stop-opacity:0.9"/>
	</linearGradient>
	<path fill="url(#SVGID_00000130616062480559558920000002033173547082960316_)" d="M869.88,563.21c0,39.22-36.95,71.01-82.54,71.01
		c-45.58,0-82.54-31.79-82.54-71.01c0-4.55,0.5-9,1.45-13.31c0.59,10.8,36.67,19.52,81.09,19.52c44.42,0,80.49-8.72,81.09-19.52
		C869.39,554.21,869.88,558.66,869.88,563.21z"/>
	<path fill="none" stroke="#000000" stroke-miterlimit="10" d="M802.99,422.2c0,2.33-7.72,4.22-17.25,4.22
		c-9.53,0-17.25-1.89-17.25-4.22c0-2.33,7.73-4.22,17.25-4.22C795.27,417.99,802.99,419.87,802.99,422.2z"/>
	
		<linearGradient id="SVGID_00000154419970078305280640000006896044826808747705_" gradientUnits="userSpaceOnUse" x1="706.1774" y1="549.6271" x2="868.4359" y2="549.6271">
		<stop  offset="0" style="stop-color:#ED1C24;stop-opacity:0.7"/>
		<stop  offset="0.1899" style="stop-color:#E41D25;stop-opacity:0.738"/>
		<stop  offset="0.4356" style="stop-color:#D41E27;stop-opacity:0.7871"/>
		<stop  offset="0.7119" style="stop-color:#BC212B;stop-opacity:0.8424"/>
		<stop  offset="1" style="stop-color:#9D232F;stop-opacity:0.9"/>
	</linearGradient>
	<path fill="url(#SVGID_00000154419970078305280640000006896044826808747705_)" d="M868.44,549.9c-0.6,10.8-36.69,19.52-81.13,19.52
		c-44.44,0-80.53-8.72-81.13-19.52c0.22-0.98,0.46-1.97,0.72-2.94c5.33-9.67,39.3-17.12,80.41-17.12c41.11,0,75.07,7.45,80.41,17.12
		C867.97,547.93,868.22,548.91,868.44,549.9z"/>
	
		<linearGradient id="SVGID_00000058554470363537678020000000290173280428600207_" gradientUnits="userSpaceOnUse" x1="768.7488" y1="466.087" x2="803.2451" y2="466.087">
		<stop  offset="0" style="stop-color:#FFFFFF;stop-opacity:0.5"/>
		<stop  offset="0.0585" style="stop-color:#F9F9F9;stop-opacity:0.4808"/>
		<stop  offset="0.1344" style="stop-color:#E9E9E9;stop-opacity:0.456"/>
		<stop  offset="0.2198" style="stop-color:#CECECE;stop-opacity:0.428"/>
		<stop  offset="0.3122" style="stop-color:#A9A9A9;stop-opacity:0.3977"/>
		<stop  offset="0.4102" style="stop-color:#797979;stop-opacity:0.3656"/>
		<stop  offset="0.5112" style="stop-color:#404040;stop-opacity:0.3325"/>
		<stop  offset="0.6103" style="stop-color:#000000;stop-opacity:0.3"/>
	</linearGradient>
	<path fill="url(#SVGID_00000058554470363537678020000000290173280428600207_)" d="M803.25,422.2v87.77c0-2.33-7.72-4.22-17.25-4.22
		c-9.53,0-17.25,1.89-17.25,4.22V422.2c0,2.33,7.73,4.22,17.25,4.22C795.53,426.43,803.25,424.54,803.25,422.2z"/>
	<path fill="#6D6E71" d="M793.38,505.75c0-26.59,0-53.17,0-79.76c1.73-0.09,4.45-0.48,7.24-2.09c0.94-0.54,1.72-1.13,2.37-1.69
		c0,29.26,0,58.51,0,87.77c-0.43-0.6-0.99-1.24-1.7-1.83C798.32,505.67,794.72,505.68,793.38,505.75z"/>
	<path fill="#E6E7E8" d="M771.43,428.91c-1.7,0.05-1.66,69.63,0,69.68c0.83,0.03,2.24-17.35,2.44-31.36
		C774.12,448.65,772.33,428.88,771.43,428.91z"/>
	<path fill="#E6E7E8" d="M759.65,506.2c-2.2-2.2-13.67,4.07-21.12,9.48c-10.54,7.64-22.75,20.6-20.34,23.43
		c3.01,3.53,28.83-8.69,39.34-26.04C758.77,511.03,760.9,507.45,759.65,506.2z"/>
	
		<linearGradient id="SVGID_00000109740890941910991200000007031617580684557231_" gradientUnits="userSpaceOnUse" x1="765.4913" y1="422.2061" x2="805.9877" y2="422.2061">
		<stop  offset="0" style="stop-color:#FFFFFF"/>
		<stop  offset="1" style="stop-color:#000000"/>
	</linearGradient>
	
		<path fill="none" stroke="url(#SVGID_00000109740890941910991200000007031617580684557231_)" stroke-width="6" stroke-miterlimit="10" d="
		M802.99,422.2c0,2.33-7.72,4.22-17.25,4.22c-9.53,0-17.25-1.89-17.25-4.22c0-2.33,7.73-4.22,17.25-4.22
		C795.27,417.99,802.99,419.87,802.99,422.2z"/>
	
		<radialGradient id="SVGID_00000131345105439904261750000010380380149988684701_" cx="785.7395" cy="509.9704" r="12.5559" gradientUnits="userSpaceOnUse">
		<stop  offset="0" style="stop-color:#FFFFFF;stop-opacity:0.5"/>
		<stop  offset="0.0895" style="stop-color:#F9F9F9;stop-opacity:0.4808"/>
		<stop  offset="0.2055" style="stop-color:#E9E9E9;stop-opacity:0.456"/>
		<stop  offset="0.336" style="stop-color:#CECECE;stop-opacity:0.428"/>
		<stop  offset="0.4772" style="stop-color:#A9A9A9;stop-opacity:0.3977"/>
		<stop  offset="0.627" style="stop-color:#797979;stop-opacity:0.3656"/>
		<stop  offset="0.7815" style="stop-color:#404040;stop-opacity:0.3325"/>
		<stop  offset="0.933" style="stop-color:#000000;stop-opacity:0.3"/>
	</radialGradient>
	<path fill="url(#SVGID_00000131345105439904261750000010380380149988684701_)" d="M802.99,509.97c0,2.33-7.72,4.22-17.25,4.22
		c-9.53,0-17.25-1.89-17.25-4.22c0-2.33,7.73-4.22,17.25-4.22C795.27,505.75,802.99,507.64,802.99,509.97z"/>
	<path fill="#6D6E71" d="M869.88,563.13c0-4.55-0.5-9-1.45-13.31c-0.22-0.98-0.46-1.97-0.72-2.94
		c-6.66-24.48-28.06-44.09-55.71-51.53c6.47,4.62,23.09,17.55,34.02,40.53c1.79,3.76,3.43,7.8,4.84,12.11
		c1.43,4.36,2.55,8.62,3.41,12.73c3.94,18.85,2.42,34.61,0.64,43.18C864.35,592.36,869.88,578.3,869.88,563.13z"/>
	
		<linearGradient id="SVGID_00000027570372081603461620000012235189484854441861_" gradientUnits="userSpaceOnUse" x1="731.7784" y1="397.3357" x2="791.5544" y2="397.3357" gradientTransform="matrix(0.9388 0.3446 -0.3446 0.9388 187.4089 -29.6604)">
		<stop  offset="0" style="stop-color:#ED1C24;stop-opacity:0.3"/>
		<stop  offset="0.3085" style="stop-color:#E31D26;stop-opacity:0.3"/>
		<stop  offset="0.7068" style="stop-color:#D01D29;stop-opacity:0.3"/>
		<stop  offset="1" style="stop-color:#BE1E2D;stop-opacity:0.3"/>
	</linearGradient>
	<path fill="url(#SVGID_00000027570372081603461620000012235189484854441861_)" d="M793.57,616.1c-2.62,7.13-17.3,8.3-32.8,2.61
		c-15.5-5.69-25.94-16.08-23.32-23.21c2.62-7.13,17.3-8.3,32.8-2.61C785.74,598.58,796.18,608.97,793.57,616.1z"/>
	<ellipse fill="#BE1E2D" cx="755.4" cy="542.81" rx="6.97" ry="4.15"/>
	<ellipse fill="#DC3121" cx="814.28" cy="545.2" rx="6.27" ry="3.23"/>
	<ellipse fill="#BE1E2D" cx="787.59" cy="557.83" rx="10.6" ry="4.18"/>
	<circle fill="#DC3121" cx="778.04" cy="539.71" r="1.05"/>
	<ellipse fill="#DC3121" cx="737.45" cy="553.86" rx="7.49" ry="3.96"/>
	<ellipse fill="#BE1E2D" cx="836.41" cy="555.91" rx="10.28" ry="4.36"/>
	
		<linearGradient id="SVGID_00000056413128932423022620000015601216238136057519_" gradientUnits="userSpaceOnUse" x1="912.0453" y1="1133.4417" x2="971.8212" y2="1133.4417" gradientTransform="matrix(0.4834 -0.3318 0.3508 0.5111 -15.5267 325.4252)">
		<stop  offset="0" style="stop-color:#ED1C24;stop-opacity:0.3"/>
		<stop  offset="0.3085" style="stop-color:#E31D26;stop-opacity:0.3"/>
		<stop  offset="0.7068" style="stop-color:#D01D29;stop-opacity:0.3"/>
		<stop  offset="1" style="stop-color:#BE1E2D;stop-opacity:0.3"/>
	</linearGradient>
	<path fill="url(#SVGID_00000056413128932423022620000015601216238136057519_)" d="M851.84,582.28c2.66,3.88-1.64,11.47-9.62,16.95
		c-7.98,5.48-16.61,6.77-19.27,2.89c-2.66-3.88,1.64-11.47,9.62-16.95C840.54,579.69,849.17,578.39,851.84,582.28z"/>
</g>
<g id="_x33_dHolder">
	<path fill="#A9AAAA" d="M807.55,479.63v3.71c0,4.03-9.41,7.3-21.02,7.3c-11.61,0-21.02-3.27-21.02-7.3v-3.71
		c0,4.03,9.41,7.3,21.02,7.3C798.14,486.93,807.55,483.66,807.55,479.63z"/>
	<path fill="#646666" d="M804.84,479.63c-0.04,0.51-0.23,1-0.59,1.47c-2.06,2.73-9.21,4.75-17.72,4.75s-15.66-2.01-17.72-4.75
		l-0.59-1.47h-2.71c0,4.03,9.41,7.3,21.02,7.3c11.61,0,21.02-3.27,21.02-7.3H804.84z"/>
</g>
<g id="microscopeOutline">
	<path fill="#D3D2CE" d="M634.28,755.49l-6.67-5.46l0.6-20.01l-18.79-2.28c-10.43-6.84-16.29-18.81-15.17-31.07
		c0.37-4.06,1.47-7.62,2.95-10.71l17.68-3.39v-13.21c3.03-0.8,6.07-1.59,9.09-2.39v-28.5v-89.14l-4.24-7.88
		c-23.35-2.02-46.69-4.04-70.03-6.07v-3.03v-6.15v-7.79v-12.13l66.4-98.84c3.03-5.21-1.33-16.61-10.31-21.83
		c-8.98-5.22-20.01-8.24-23.04-3.03l-66.1,96.41h-29.71l-23.04,20.62v21.22c-0.81,2.63-1.62,5.26-2.43,7.89l4.24,7.88l1.22,30.32
		l2.75,6.27c7.96-1.53,19.4-1.52,32.41,1.01c11.64,2.27,21.32,5.93,28.76,9.46l18.84-18.55c1.08,0.24,2.19,0.49,3.33,0.73v72.64
		l-16.98,3.03l-2.42,11.52l-27.31-2.73h-0.01l-0.01-0.01l-2.49-0.25h-0.01c-0.01,0-0.01,0-0.01,0c-0.01,0-0.02,0-0.03-0.01
		l-6.52-0.65l-92.78,24.86l1.21,18.19l110.36,13.34l17.59,12.13v24.86l-24.54,11.66l17.26,2.9l7.28,1.23l-24.54-4.12l-22.97,10.91
		l-1.01,0.48l-93.38,50.33v12.73l4.24,2.42v16.98l35.17,7.88l3.03,3.03l46.69,9.7l7.27-0.6l50.94,9.09l136.43-58.21v-40.03v-15.76
		L634.28,755.49z M528.9,706.37l55.15-17.89l-50.44,16.36L528.9,706.37z"/>
	<path fill="#565554" d="M616.08,407.43l-66.4,98.84l-16.07-27.29h-16.98l66.1-96.41c3.03-5.21,14.06-2.18,23.04,3.03
		C614.75,390.82,619.11,402.22,616.08,407.43z"/>
	<path fill="#E1E2E1" d="M549.69,506.27v12.13c-12.59,1.52-35.13,4.95-50.94,4.85c-15.94-0.11-22.2-0.72-34.86-2.43V499.6l47.77,1.1
		l21.97-21.71L549.69,506.27z"/>
	<path fill="#D3D2CE" d="M549.69,518.4v7.79c-12.67,2.48-27.9,4.52-45.17,4.94c-16.3,0.4-30.81-0.74-43.06-2.42
		c0.81-2.63,1.62-5.26,2.43-7.89c12.66,1.71,18.93,2.32,34.86,2.43C514.55,523.35,537.09,519.92,549.69,518.4z"/>
	<path fill="#87847E" d="M549.69,526.19v6.15c-11.35,2.76-25.38,5.23-41.54,6.07c-16.38,0.84-30.77-0.21-42.45-1.82l-4.24-7.88
		c12.25,1.68,26.76,2.82,43.06,2.42C521.79,530.71,537.02,528.67,549.69,526.19z"/>
	<path fill="#E2E3E3" d="M623.96,638.46v28.5c-3.03,0.8-6.06,1.59-9.09,2.39v-9.07l-30.82-2.76v-7.24h0.01l9.59-4.55L623.96,638.46z
		"/>
	<path fill="#87847E" d="M549.69,565.09l-18.84,18.55c-7.45-3.54-17.12-7.19-28.76-9.46c-13.02-2.53-24.45-2.54-32.41-1.01
		l-2.75-6.27c11.68,1.81,25.88,3.12,41.99,2.73C524.57,569.26,538.32,567.37,549.69,565.09z"/>
	<path fill="#E2E1DF" d="M623.96,549.32v89.14l-30.32,7.28c-0.41-19-0.81-38-1.21-57c0.19-1,1.41-7.97-3.23-13.1
		c-1.75-1.93-3.74-2.96-5.14-3.51c-10.35-2.34-24.03-4.69-34.37-7.04v-29.71c23.35,2.02,46.69,4.04,70.03,6.07L623.96,549.32z"/>
	<polygon fill="#D3D2CE" points="593.65,645.74 584.06,650.28 584.05,650.28 536.04,641.49 553.02,638.46 	"/>
	<polygon fill="#CDCBC8" points="584.05,650.28 584.05,657.53 533.62,653.02 536.04,641.49 	"/>
	<polygon fill="#747577" points="533.62,742.75 533.62,758.54 526.34,757.31 509.08,754.41 	"/>
	<polygon fill="#B5B3AC" points="584.05,688.48 584.05,767.01 533.62,758.54 533.62,704.84 	"/>
	<polygon fill="#5D5D5C" points="533.62,704.84 533.62,717.89 516.03,705.77 522.7,706.08 528.9,706.37 	"/>
	<path fill="#E2E3E3" d="M628.21,730.03l-0.6,20.01l-43.55,16.98v-78.53l14.23-4.62c-2.02,3.54-3.58,7.8-4.03,12.81
		c-1.12,12.26,4.73,24.24,15.17,31.07L628.21,730.03z"/>
	<path fill="#7A797A" d="M614.87,660.29l-84.93,28.19h-7.24l-118.25-14.25l92.78-24.86l6.52,0.65c0.01,0.01,0.02,0.01,0.03,0.01
		c0.01,0,0.01,0,0.01,0h0.01l2.49,0.25l0.01,0.01h0.01l27.31,2.73l50.44,4.51L614.87,660.29z"/>
	<polygon fill="#605F5F" points="522.7,688.48 522.7,706.08 516.03,705.77 405.67,692.42 404.45,674.23 	"/>
	<polygon fill="#D8D7D3" points="634.28,755.49 604.01,767.01 509.67,820.8 516.64,796.12 584.05,767.01 627.61,750.03 	"/>
	<polygon fill="#747577" points="533.62,758.54 468.13,783.99 457.21,810.37 435.53,824.46 435.53,824.46 391.72,816.13 
		485.1,765.8 486.11,765.32 509.08,754.41 	"/>
	<polygon fill="#848586" points="675.51,763.38 648.22,774.29 604.01,767.01 634.28,755.49 	"/>
	<polygon fill="#817F7E" points="648.22,774.29 539.68,840.39 528.9,842.2 486.32,834.11 509.67,820.8 604.01,767.01 	"/>
	<polygon fill="#7D7C7D" points="435.53,824.46 433.43,838.63 395.96,831.29 391.72,828.86 391.72,816.13 	"/>
	<polygon fill="#7F7E7F" points="528.9,842.2 528.9,857.36 486.32,849.01 486.32,834.11 	"/>
	<polygon fill="none" stroke="#000000" stroke-miterlimit="10" points="433.43,838.63 486.32,849 486.32,849.01 	"/>
	<polygon fill="#8E8D8A" points="675.51,763.38 675.51,779.14 647.01,790.66 544.62,854.33 542.19,854.8 539.68,840.39 
		648.22,774.29 	"/>
	<polygon fill="#E1DFDE" points="675.51,779.14 675.51,819.16 539.07,877.37 488.13,868.28 480.86,868.88 434.17,859.18 
		431.14,856.15 395.96,848.27 395.96,831.29 433.43,838.63 486.32,849 486.32,849.01 528.9,857.36 542.19,854.8 544.62,854.33 
		647.01,790.66 	"/>
	<polyline fill="#706D6C" points="614.87,682.57 584.05,688.48 528.9,706.37 529.94,688.48 614.87,660.29 614.87,669.35 	"/>
	<path fill="#87847E" d="M593.65,645.74l-40.63-7.28v-73.37c10.34,2.34,20.69,4.69,31.04,7.04c1.4,0.55,3.39,1.57,5.14,3.51
		c4.64,5.14,3.42,12.1,3.23,13.1C592.84,607.73,593.24,626.74,593.65,645.74z"/>
	<polygon fill="#DEDDDC" points="533.62,478.98 511.65,500.69 463.88,499.6 486.92,478.98 	"/>
	<path fill="none" stroke="#000000" stroke-miterlimit="10" d="M486.32,523.25"/>
	<polygon fill="#C3BFB8" points="584.05,767.01 516.64,796.12 468.13,783.99 533.62,758.54 533.62,758.54 	"/>
	<polygon fill="#E2E3E3" points="486.32,834.11 486.32,849 433.43,838.63 435.53,824.46 435.53,824.46 	"/>
	<polygon fill="#E2E3E3" points="516.64,796.12 509.67,820.8 486.32,834.11 435.53,824.46 457.21,810.37 468.13,783.99 	"/>
	<polygon fill="#7E7D7D" points="542.19,854.8 528.9,857.36 528.9,842.2 539.68,840.39 	"/>
	<polyline fill="#656463" points="528.9,706.37 522.7,706.08 522.7,688.48 529.94,688.48 	"/>
	<path fill="#696765" d="M549.69,535.38"/>
	<path fill="#D3D2CE" d="M508.15,538.41c-16.38,0.84-30.77-0.21-42.45-1.82l1.22,30.32c11.68,1.81,25.88,3.12,41.99,2.73
		c15.67-0.38,29.42-2.27,40.78-4.55v-29.71v-3.03C538.34,535.1,524.31,537.57,508.15,538.41z"/>
</g>
<g id="microscopeDetails">
	<path fill="none" stroke="#000000" stroke-miterlimit="10" d="M694.31,726.38"/>
	<path fill="#706D6C" d="M656.71,684.54c-4.61-8.86-12.66-12.05-14.56-12.73c-6.07-1.61-12.13-3.23-18.19-4.85
		c-3.84,1.01-7.68,2.02-11.52,3.03c-1.03,0.53-16.55,8.83-18.19,26.67c-1.12,12.26,4.73,24.24,15.17,31.07l18.79,2.28h7.88
		c2.12-0.4,11.24-2.33,17.59-10.92c5.22-7.07,5.48-14.48,5.46-16.97C659.58,699.95,660.82,692.48,656.71,684.54z"/>
	<path fill="#48494B" d="M659.14,702.13c0.02,2.49-0.23,9.9-5.46,16.97c-6.35,8.59-15.47,10.53-17.59,10.92h-7.88l-18.79-2.28
		c-10.43-6.84-16.29-18.81-15.17-31.07c1.64-17.84,17.16-26.15,18.19-26.67c3.84-1.01,7.69-2.02,11.52-3.03
		c6.07,1.61,12.13,3.23,18.19,4.85c1.89,0.69,9.95,3.87,14.56,12.73C660.82,692.48,659.58,699.95,659.14,702.13z"/>
	<ellipse fill="#706D6C" cx="647.27" cy="700.24" rx="8.75" ry="17.66"/>
	
		<line fill="#706D6C" stroke="#787B7D" stroke-width="3" stroke-linecap="round" stroke-linejoin="round" stroke-miterlimit="10" x1="622.6" y1="670.6" x2="643.98" y2="677.87"/>
	
		<line fill="#706D6C" stroke="#787B7D" stroke-width="3" stroke-linecap="round" stroke-linejoin="round" stroke-miterlimit="10" x1="614.87" y1="674.24" x2="636.7" y2="682.58"/>
	
		<line fill="#706D6C" stroke="#787B7D" stroke-width="3" stroke-linecap="round" stroke-linejoin="round" stroke-miterlimit="10" x1="608.05" y1="680.6" x2="633.29" y2="688.33"/>
	
		<line fill="#706D6C" stroke="#787B7D" stroke-width="3" stroke-linecap="round" stroke-linejoin="round" stroke-miterlimit="10" x1="602.14" y1="691.97" x2="629.42" y2="696.07"/>
	
		<line fill="#706D6C" stroke="#787B7D" stroke-width="3" stroke-linecap="round" stroke-linejoin="round" stroke-miterlimit="10" x1="602.14" y1="705.16" x2="629.42" y2="705.16"/>
	
		<line fill="#706D6C" stroke="#787B7D" stroke-width="3" stroke-linecap="round" stroke-linejoin="round" stroke-miterlimit="10" x1="608.05" y1="717.9" x2="629.42" y2="714.26"/>
	
		<line fill="#706D6C" stroke="#787B7D" stroke-width="3" stroke-linecap="round" stroke-linejoin="round" stroke-miterlimit="10" x1="622.6" y1="724.72" x2="636.7" y2="721.08"/>
	<path fill="#6B6E70" d="M537.25,586.92c-1.91-1.04-4.04-2.15-6.41-3.27c-7.45-3.54-17.12-7.19-28.76-9.46
		c-13.02-2.53-24.45-2.54-32.41-1.01c-1.84,0.35-3.5,0.78-4.94,1.29l-9.09,7.89l-0.24,5.18l-7.89,11.52v4.85l-9.58,14.38
		l-1.33,10.34c1.77,1.96,4.24,4.3,7.51,6.51c4.02,2.71,7.84,4.26,10.69,5.16c2.83-2.42,5.66-4.85,8.49-7.28l12.73-15.16l6.07-11.52
		l6.01,0.74l-0.55,7.14l3.03,3.03v17.21v1.12c0.32,3.34,1.65,6.37,3.65,8.8c2.4,2.91,5.76,4.96,9.54,5.65
		c0.01,0.01,0.02,0.01,0.03,0.01c0.01,0,0.01,0,0.01,0h0.01l2.49,0.25l0.01,0.01h0.01c5.03,0.1,9.67-2.2,12.73-5.91
		c2.01-2.43,3.34-5.46,3.66-8.8c0.05-0.37,0.11-0.74,0.17-1.12c0.96-6.34,1.9-12.69,2.86-19.03l0.01-0.11l1.25-8.24l12.69-5.59
		C538.87,596.62,538.06,591.77,537.25,586.92z"/>
	<path fill="#626262" d="M539.68,601.47c-8.95-5.64-23.48-13.27-42.82-17.29c-16.89-3.5-31.35-2.98-41.22-1.84l9.09-7.89
		c1.45-0.5,3.1-0.94,4.94-1.29c7.96-1.53,19.4-1.52,32.41,1.01c11.64,2.27,21.32,5.93,28.76,9.46c2.36,1.12,4.5,2.23,6.41,3.27
		C538.06,591.77,538.87,596.62,539.68,601.47z"/>
	<path fill="#B7B8B5" d="M539.68,601.47l-12.69,5.59c-1.51-9.46-9.59-16.52-18.99-16.74c-9.74-0.22-18.35,6.94-19.91,16.74
		l-6.01-0.74c-0.27-1.71-1.63-9.09-8.42-14.4c-7.89-6.17-16.87-4.65-18.27-4.39l0.24-5.18c9.86-1.14,24.32-1.66,41.22,1.84
		C516.19,588.2,530.73,595.84,539.68,601.47z"/>
	<path fill="#585857" d="M482.07,606.32l-6.07,11.52c-4.91-2.75-10.17-5.5-15.77-8.19c-4.36-2.1-8.61-4.01-12.73-5.76v-4.85
		l7.89-11.52c1.39-0.26,10.38-1.77,18.27,4.39C480.44,597.23,481.81,604.61,482.07,606.32z"/>
	<path fill="#696965" d="M476.01,617.84L463.27,633c-3.43-2.75-7.62-5.72-12.58-8.56c-4.59-2.63-8.92-4.63-12.77-6.17l9.58-14.38
		c4.26,1.56,8.84,3.45,13.65,5.76C466.71,612.33,471.67,615.13,476.01,617.84z"/>
	<path fill="#737470" d="M463.27,633c-2.83,2.42-5.66,4.85-8.49,7.28c-1.95-2.07-4.71-4.61-8.41-6.98c-3.67-2.34-7.1-3.78-9.78-4.69
		l1.33-10.34L463.27,633z"/>
	<path fill="#7F7E7C" d="M454.78,640.28c-2.85-0.9-6.66-2.44-10.69-5.16c-3.27-2.21-5.74-4.55-7.51-6.51
		c2.68,0.9,6.11,2.34,9.78,4.69C450.07,635.67,452.84,638.21,454.78,640.28z"/>
	<path fill="#696965" d="M463.27,633l-25.35-14.73c3.85,1.53,8.18,3.54,12.77,6.17C455.65,627.28,459.84,630.26,463.27,633z"/>
	<path fill="#575655" d="M526.99,607.06l-1.25,8.24l-0.01,0.11c-0.92-0.92-8.6-8.33-19.78-6.9c-9.07,1.16-14.27,7.34-15.39,8.72
		l-3.03-3.03l0.55-7.14c1.57-9.8,10.18-16.96,19.91-16.74C517.4,590.55,525.48,597.6,526.99,607.06z"/>
	<path fill="#D7D4D0" d="M506.41,638.76c-7.18,0.1-11.51,4.84-12.19,5.61c2.4,2.91,5.76,4.96,9.54,5.65
		c0.01,0.01,0.02,0.01,0.03,0.01c0.01,0,0.01,0,0.01,0h0.01l2.49,0.25l0.01,0.01h0.01c5.04,0.1,9.67-2.2,12.73-5.91
		C518.39,643.64,513.84,638.66,506.41,638.76z M507.01,649.37c-1.47,0-2.65-0.74-2.65-1.67c0-0.92,1.19-1.67,2.65-1.67
		s2.66,0.75,2.66,1.67C509.67,648.63,508.47,649.37,507.01,649.37z"/>
	<path fill="none" stroke="#000000" stroke-miterlimit="10" d="M509.67,647.71c0,0.92-1.19,1.67-2.66,1.67s-2.65-0.74-2.65-1.67
		c0-0.92,1.19-1.67,2.65-1.67S509.67,646.79,509.67,647.71z"/>
	<path fill="#7A7A78" d="M525.73,615.42c-0.96,6.34-1.9,12.69-2.86,19.03c-2.41-1.45-8.14-5.8-15.78-5.92
		c-8.18-0.12-14.12,4.47-16.52,5.92v-17.21c1.11-1.38,6.32-7.56,15.39-8.72C517.13,607.09,524.81,614.5,525.73,615.42z"/>
	<path fill="#858585" d="M522.87,634.45c-0.05,0.37-0.11,0.74-0.17,1.12c-0.32,3.35-1.65,6.37-3.66,8.8
		c-0.65-0.74-5.2-5.71-12.63-5.61c-7.18,0.1-11.51,4.84-12.19,5.61c-2-2.43-3.33-5.46-3.65-8.8v-1.12c2.4-1.45,8.35-6.04,16.52-5.92
		C514.73,628.64,520.46,633,522.87,634.45z"/>
	<path fill="none" stroke="#AAAF84" stroke-width="3" stroke-linecap="round" stroke-linejoin="round" stroke-miterlimit="10" d="
		M448.87,599.04c3.76,0.73,7.57,2.16,13.19,5.16c6.64,3.54,11.22,7.84,14.02,10.91"/>
	<path fill="none" stroke="#6C7586" stroke-width="3" stroke-linecap="round" stroke-linejoin="round" stroke-miterlimit="10" d="
		M488.8,612.79c1.04-1.27,6.63-7.93,18.28-8.36c10.32-0.38,17.21,5.5,18.64,6.78"/>
	<g>
		<path fill="#6B6E70" d="M499.12,645.35c3.23-5.37,12.46-5.23,15.01,0.69c-1.26-0.76-2.45-1.37-3.68-1.82
			C506.62,642.76,502.87,643.39,499.12,645.35L499.12,645.35z"/>
	</g>
	<path fill="none" stroke="#000000" stroke-miterlimit="10" d="M506.63,631.49"/>
	<path fill="#6B6E70" d="M509.67,647.71c0,0.92-1.19,1.67-2.66,1.67s-2.65-0.74-2.65-1.67c0-0.92,1.19-1.67,2.65-1.67
		S509.67,646.79,509.67,647.71z"/>
	<path fill="#7E7C79" d="M543.86,768.75c-0.95-5.93-2.62-10.83-4.18-14.47c-0.4-0.76-0.8-1.51-1.2-2.28
		c-1.61-3.08-3.24-6.16-4.86-9.25c-2.4-1.77-9.34-6.41-19.4-6.67c-9.84-0.25-16.89,3.83-19.4,5.46c-2.23,4.04-4.45,8.09-6.68,12.13
		c-0.99,4.49-1.86,9.56-2.42,15.16c-0.53,5.28-0.69,10.17-0.64,14.55c0,1.67,13.31,3.03,29.73,3.03c16.42,0,29.73-2.87,29.73-4.55
		C544.73,778.29,544.67,773.81,543.86,768.75z"/>
	<path fill="#5F5E5E" d="M543.86,768.75c-0.95-5.93-2.62-10.83-4.18-14.47c-0.4-0.76-0.8-1.51-1.2-2.28
		c-4.75,2.31-12.97,5.56-23.66,6.15c-12.11,0.66-21.59-2.41-26.68-4.47c-0.99,4.49-1.86,9.56-2.42,15.16
		c-0.53,5.28-0.69,10.17-0.64,14.55c0,1.67,13.31,3.03,29.73,3.03c16.42,0,29.73-2.87,29.73-4.55
		C544.73,778.29,544.67,773.81,543.86,768.75z M490.71,772.24c-0.79,4.55-2.83,9.51-3.86,9.33c-1.16-0.21-1.04-6.78-0.23-11.82
		c0.59-3.67,2.06-9.65,3.18-9.55C490.93,760.3,491.72,766.49,490.71,772.24z M502.99,772.01c-0.39,5.46-3.61,11.03-5.46,10.69
		c-1.89-0.34-2.52-6.94-1.59-12.05c0.62-3.36,2.34-8.5,4.1-8.41C501.77,762.33,503.31,767.51,502.99,772.01z M513.45,784.98
		c-2.68-0.15-4.82-7.36-4.55-13.19c0.21-4.31,1.85-10.5,4.32-10.69c2.58-0.2,5.93,6.14,5.92,12.05
		C519.13,778.85,516.01,785.12,513.45,784.98z M528.69,783.38c-2.15,0.02-4.13-7.16-4.32-12.73c-0.12-3.44,0.33-9.65,2.27-10
		c1.89-0.34,4.99,4.89,5.68,10C533.15,776.66,530.76,783.37,528.69,783.38z M540.28,780.43c-1.02,0.13-2.68-6.02-3.41-9.78
		c-0.78-4-1.45-10.21-0.46-10.46c0.89-0.22,3.1,4.37,4.09,8.87C541.7,774.48,541.26,780.3,540.28,780.43z"/>
	<path fill="none" stroke="#000000" stroke-miterlimit="10" d="M494.35,749.5c-0.67,1.97-2.3,3.65-2.73,3.41
		c-0.79-0.43,1.84-7.67,2.73-7.5C494.82,745.5,494.96,747.72,494.35,749.5z"/>
	<path fill="#575654" d="M533.62,742.75c-5.16,0.98-11.78,1.76-19.48,1.52c-7.69-0.24-14.24-1.44-19.32-2.73
		c-2.23,4.04-4.45,8.09-6.68,12.13c5.09,2.06,14.57,5.14,26.68,4.47c10.69-0.59,18.91-3.84,23.66-6.15
		C536.86,748.92,535.24,745.84,533.62,742.75z M494.35,749.5c-0.67,1.97-2.3,3.65-2.73,3.41c-0.79-0.43,1.84-7.67,2.73-7.5
		C494.82,745.5,494.96,747.72,494.35,749.5z M500.57,749.17c-0.46,2.42-1.91,4.72-2.5,4.55c-0.62-0.19-0.3-3.18,0.23-5.23
		c0.36-1.42,1.22-3.96,1.81-3.86C500.67,744.7,500.98,747.07,500.57,749.17z M507.54,749.05c-0.16,1.59-0.69,4.79-1.36,4.77
		c-0.59-0.01-1.33-2.48-0.91-4.77c0.35-1.94,1.53-3.78,2.04-3.64C507.89,745.57,507.62,748.21,507.54,749.05z M512.37,754.08
		c-1-0.01-2.02-2.34-1.87-4.35c0.13-1.79,1.19-3.82,2.17-3.76c0.93,0.06,1.62,2.04,1.69,3.53
		C514.47,751.63,513.4,754.1,512.37,754.08z M519.36,753.59c-0.8-0.05-1.11-3.37-1.13-3.64c-0.03-0.3-0.31-3.43,0.46-3.64
		c0.59-0.16,1.79,1.46,2.04,3.18C521.02,751.5,520.02,753.63,519.36,753.59z M525.05,753.14c-0.46-0.03-0.69-1.12-1.14-3.18
		c-0.45-2.04-0.73-3.34-0.23-3.64c0.57-0.35,2.14,0.66,2.73,2.04C527.3,750.47,525.8,753.21,525.05,753.14z M532.32,751.55
		c-0.59,0.15-1.45-1.41-1.81-2.28c-0.52-1.24-0.83-3.09-0.23-3.41c0.49-0.26,1.51,0.54,2.04,1.36
		C533.42,748.89,533.01,751.38,532.32,751.55z"/>
	<path fill="#7E7C79" d="M494.35,749.5c-0.67,1.97-2.3,3.65-2.73,3.41c-0.79-0.43,1.84-7.67,2.73-7.5
		C494.82,745.5,494.96,747.72,494.35,749.5z"/>
	<path fill="#757474" d="M514.21,736.09c-9.84-0.25-16.89,3.83-19.4,5.46c5.08,1.29,11.64,2.49,19.32,2.73
		c7.7,0.24,14.33-0.54,19.48-1.52C531.22,740.99,524.28,736.35,514.21,736.09z M513.22,741.54c-4.14,0-7.5-0.61-7.5-1.36
		c0-0.76,3.36-1.37,7.5-1.37c4.14,0,7.51,0.61,7.51,1.37C520.73,740.93,517.37,741.54,513.22,741.54z"/>
	<path fill="#9F9D9C" d="M520.73,740.18c0,0.75-3.36,1.36-7.51,1.36c-4.14,0-7.5-0.61-7.5-1.36c0-0.76,3.36-1.37,7.5-1.37
		C517.37,738.82,520.73,739.43,520.73,740.18z"/>
	<path fill="#7E7C79" d="M500.57,749.17c-0.46,2.42-1.91,4.72-2.5,4.55c-0.62-0.19-0.3-3.18,0.23-5.23
		c0.36-1.42,1.22-3.96,1.81-3.86C500.67,744.7,500.98,747.07,500.57,749.17z"/>
	<path fill="#7E7C79" d="M512.37,754.08c-1-0.01-2.02-2.34-1.87-4.35c0.13-1.79,1.19-3.82,2.17-3.76c0.93,0.06,1.62,2.04,1.69,3.53
		C514.47,751.63,513.4,754.1,512.37,754.08z"/>
	<path fill="#7E7C79" d="M507.54,749.05c-0.16,1.59-0.69,4.79-1.36,4.77c-0.59-0.01-1.33-2.48-0.91-4.77
		c0.35-1.94,1.53-3.78,2.04-3.64C507.89,745.57,507.62,748.21,507.54,749.05z"/>
	<path fill="#A2A29E" d="M502.08,748.82"/>
	<path fill="#7E7C79" d="M519.36,753.59c-0.8-0.05-1.11-3.37-1.13-3.64c-0.03-0.3-0.31-3.43,0.46-3.64
		c0.59-0.16,1.79,1.46,2.04,3.18C521.02,751.5,520.02,753.63,519.36,753.59z"/>
	<path fill="#7E7C79" d="M525.05,753.14c-0.46-0.03-0.69-1.12-1.14-3.18c-0.45-2.04-0.73-3.34-0.23-3.64
		c0.57-0.35,2.14,0.66,2.73,2.04C527.3,750.47,525.8,753.21,525.05,753.14z"/>
	<path fill="#7E7C79" d="M532.32,751.55c-0.59,0.15-1.45-1.41-1.81-2.28c-0.52-1.24-0.83-3.09-0.23-3.41
		c0.49-0.26,1.51,0.54,2.04,1.36C533.42,748.89,533.01,751.38,532.32,751.55z"/>
	<path fill="#7E7C79" d="M502.99,772.01c-0.39,5.46-3.61,11.03-5.46,10.69c-1.89-0.34-2.52-6.94-1.59-12.05
		c0.62-3.36,2.34-8.5,4.1-8.41C501.77,762.33,503.31,767.51,502.99,772.01z"/>
	<path fill="#7E7C79" d="M519.14,773.15c-0.01,5.7-3.13,11.97-5.69,11.82c-2.68-0.15-4.82-7.36-4.55-13.19
		c0.21-4.31,1.85-10.5,4.32-10.69C515.81,760.9,519.15,767.24,519.14,773.15z"/>
	<path fill="#7E7C79" d="M528.69,783.38c-2.15,0.02-4.13-7.16-4.32-12.73c-0.12-3.44,0.33-9.65,2.27-10c1.89-0.34,4.99,4.89,5.68,10
		C533.15,776.66,530.76,783.37,528.69,783.38z"/>
	<path fill="#7E7C79" d="M540.28,780.43c-1.02,0.13-2.68-6.02-3.41-9.78c-0.78-4-1.45-10.21-0.46-10.46
		c0.89-0.22,3.1,4.37,4.09,8.87C541.7,774.48,541.26,780.3,540.28,780.43z"/>
	<path fill="#7E7C79" d="M490.71,772.24c-0.79,4.55-2.83,9.51-3.86,9.33c-1.16-0.21-1.04-6.78-0.23-11.82
		c0.59-3.67,2.06-9.65,3.18-9.55C490.93,760.3,491.72,766.49,490.71,772.24z"/>
</g>
</svg>
