<?xml version="1.0" encoding="utf-8"?>
<!-- Generator: Adobe Illustrator 26.1.0, SVG Export Plug-In . SVG Version: 6.00 Build 0)  -->
<svg version="1.1" id="Layer_1" xmlns="http://www.w3.org/2000/svg" xmlns:xlink="http://www.w3.org/1999/xlink" x="0px" y="0px"
	 viewBox="0 0 1920 150" style="enable-background:new 0 0 1920 150;" xml:space="preserve">
<style type="text/css">
	.st0{fill:url(#SVGID_1_);}
</style>
<linearGradient id="SVGID_1_" gradientUnits="userSpaceOnUse" x1="960" y1="150" x2="960" y2="-2.957810e-06">
	<stop  offset="0" style="stop-color:#DB1229"/>
	<stop  offset="1" style="stop-color:#FF1730"/>
</linearGradient>
<path class="st0" d="M0,107.7l64-7c64-7.5,192-20.8,320-42.3C512,37.5,640,8.4,768,1.8c128-6.6,256,6.6,384,14.2c128,7,256,7,384,14
	c128,7.5,256,20.8,320,28.3l64,7V150h-64c-64,0-192,0-320,0s-256,0-384,0s-256,0-384,0s-256,0-384,0s-256,0-320,0H0V107.7z"/>
</svg>
